<svg version="1.1" id="Layer_1" xmlns="http://www.w3.org/2000/svg" xmlns:xlink="http://www.w3.org/1999/xlink" x="0px" y="0px"
	 width="100%" viewBox="0 0 512 512" enable-background="new 0 0 512 512" xml:space="preserve">
<path fill="#FFFFFF" opacity="1.000000" stroke="none" 
	d="
M513.000000,468.000000 
	C513.000000,482.992645 513.000000,497.985260 513.000000,512.983398 
	C342.424500,512.988953 171.848999,512.988953 1.000000,512.988953 
	C1.000000,401.979248 1.000000,290.958282 1.356771,179.596802 
	C2.867032,182.061188 3.750399,185.017670 5.223450,187.643311 
	C10.112572,196.357925 18.220005,201.492050 26.740486,205.912399 
	C39.369572,212.464264 52.166092,218.693405 64.938736,225.522034 
	C64.990761,259.145966 64.946617,292.307983 65.050117,325.469543 
	C65.066521,330.725433 65.219475,336.082916 66.224617,341.214111 
	C68.928169,355.015625 74.159500,367.868256 82.160583,379.517548 
	C90.668556,391.904907 101.466217,401.705109 114.941856,408.456512 
	C146.363098,424.198883 177.751266,440.008209 209.238632,455.617279 
	C224.252106,463.059845 240.360855,465.879242 257.477783,465.897186 
	C261.515289,465.645386 265.099213,465.162231 268.696106,465.028412 
	C281.743256,464.543060 293.913879,460.885651 305.512878,455.094635 
	C336.154510,439.796204 366.751007,424.406738 397.444214,409.212555 
	C409.530762,403.229309 419.708221,395.119751 428.052765,384.500824 
	C441.820801,366.980042 448.775299,347.088470 448.933350,324.925446 
	C449.170807,291.624084 449.073456,258.320312 449.441711,224.876831 
	C460.792786,219.150177 471.820648,213.564240 482.912384,208.444427 
	C482.984314,293.613098 483.090454,378.315948 482.847137,463.017792 
	C482.823029,471.402191 491.423004,478.265411 499.723969,477.318024 
	C506.291138,476.568542 509.556793,472.483093 513.000000,468.000000 
z"/>
<path fill="#FFFFFF" opacity="1.000000" stroke="none" 
	d="
M0.999999,164.000000 
	C1.000000,109.694992 1.000000,55.389980 1.000000,1.042486 
	C171.549362,1.042486 342.098755,1.042486 513.000000,1.042486 
	C513.000000,55.353722 513.000000,109.708199 512.728271,164.487061 
	C512.242920,164.620697 512.029236,164.329941 511.891235,163.648743 
	C509.176208,150.604156 499.727386,143.484451 489.288635,138.218887 
	C427.892639,107.249207 366.311249,76.646416 304.739716,46.025829 
	C289.750916,38.571659 273.821716,35.122898 256.557983,36.091881 
	C239.826828,35.327370 224.289246,38.517914 209.764633,45.737415 
	C148.069550,76.403160 86.399323,107.121109 24.916954,138.209457 
	C18.464020,141.472366 12.869533,146.869965 7.717561,152.104660 
	C4.633495,155.238251 3.184126,159.980698 0.999999,164.000000 
z"/>
<path fill="#005183" opacity="1.000000" stroke="none" 
	d="
M0.999999,164.466125 
	C3.184126,159.980698 4.633495,155.238251 7.717561,152.104660 
	C12.869533,146.869965 18.464020,141.472366 24.916954,138.209457 
	C86.399323,107.121109 148.069550,76.403160 209.764633,45.737415 
	C224.289246,38.517914 239.826828,35.327370 256.551453,36.549843 
	C257.010712,65.020027 257.013519,92.958916 257.011536,121.004791 
	C257.006744,121.111778 257.041595,121.323097 256.615692,121.284241 
	C241.632690,121.598747 228.605865,126.145927 216.850159,134.839615 
	C196.734192,149.715988 191.818069,177.008896 206.537308,197.218735 
	C218.875336,214.159134 236.461273,221.253281 257.024475,221.782623 
	C257.007111,221.888306 257.016815,222.102280 257.008240,222.563995 
	C257.021301,250.995514 257.042969,278.965332 257.034088,306.965790 
	C257.003571,306.996429 256.942535,307.057770 256.491577,307.036011 
	C238.556015,306.720947 221.931000,303.023926 206.213028,295.125488 
	C161.138275,272.474976 115.990425,249.969849 70.855713,227.438812 
	C68.947319,226.486130 66.883003,225.845795 64.891335,225.059937 
	C52.166092,218.693405 39.369572,212.464264 26.740486,205.912399 
	C18.220005,201.492050 10.112572,196.357925 5.223450,187.643311 
	C3.750399,185.017670 2.867032,182.061188 1.356771,179.128143 
	C1.000000,174.310745 1.000000,169.621490 0.999999,164.466125 
z"/>
<path fill="#FE9F04" opacity="1.000000" stroke="none" 
	d="
M511.815552,164.039200 
	C512.029236,164.329941 512.242920,164.620697 512.728271,164.955719 
	C513.000000,265.687561 513.000000,366.375122 513.000000,467.531342 
	C509.556793,472.483093 506.291138,476.568542 499.723969,477.318024 
	C491.423004,478.265411 482.823029,471.402191 482.847137,463.017792 
	C483.090454,378.315948 482.984314,293.613098 482.976196,207.980957 
	C482.976074,200.448364 482.976074,193.845367 482.976074,187.262543 
	C482.018921,187.067932 481.552429,186.890152 481.085876,186.889999 
	C426.187653,186.871674 371.289429,186.889496 316.391357,186.792603 
	C313.650604,186.787766 312.751556,188.105774 311.788879,190.205261 
	C308.251068,197.920547 302.748688,204.050629 296.049072,209.174438 
	C284.525818,217.987381 271.175781,221.260040 257.016815,222.102280 
	C257.016815,222.102280 257.007111,221.888306 257.007050,221.335663 
	C257.018524,187.629700 257.030060,154.476395 257.041565,121.323097 
	C257.041595,121.323097 257.006744,121.111778 257.436554,121.073349 
	C261.008667,121.353310 264.181305,121.492554 267.288269,122.019386 
	C286.454926,125.269363 301.950104,134.108215 311.177795,151.859756 
	C312.870453,155.115936 314.589661,156.243668 318.274536,156.235077 
	C376.185883,156.099945 434.097900,156.231781 492.008881,156.033951 
	C499.981995,156.006714 506.737854,157.583847 511.815552,164.039200 
z"/>
<path fill="#005183" opacity="1.000000" stroke="none" 
	d="
M449.118500,225.017578 
	C449.073456,258.320312 449.170807,291.624084 448.933350,324.925446 
	C448.775299,347.088470 441.820801,366.980042 428.052765,384.500824 
	C419.708221,395.119751 409.530762,403.229309 397.444214,409.212555 
	C366.751007,424.406738 336.154510,439.796204 305.512878,455.094635 
	C293.913879,460.885651 281.743256,464.543060 268.696106,465.028412 
	C265.099213,465.162231 261.515289,465.645386 257.468689,465.439880 
	C256.988861,412.293549 256.965698,359.675659 256.942535,307.057770 
	C256.942535,307.057770 257.003571,306.996429 257.483459,306.989716 
	C275.285156,306.712738 291.791412,303.106567 307.358276,295.301758 
	C352.599335,272.618988 397.879425,250.013931 443.159363,227.408813 
	C445.067993,226.455963 447.128662,225.807724 449.118500,225.017578 
z"/>
<path fill="#0065A3" opacity="1.000000" stroke="none" 
	d="
M256.491577,307.036011 
	C256.965698,359.675659 256.988861,412.293549 257.021057,465.368774 
	C240.360855,465.879242 224.252106,463.059845 209.238632,455.617279 
	C177.751266,440.008209 146.363098,424.198883 114.941856,408.456512 
	C101.466217,401.705109 90.668556,391.904907 82.160583,379.517548 
	C74.159500,367.868256 68.928169,355.015625 66.224617,341.214111 
	C65.219475,336.082916 65.066521,330.725433 65.050117,325.469543 
	C64.946617,292.307983 64.990761,259.145966 64.938736,225.522034 
	C66.883003,225.845795 68.947319,226.486130 70.855713,227.438812 
	C115.990425,249.969849 161.138275,272.474976 206.213028,295.125488 
	C221.931000,303.023926 238.556015,306.720947 256.491577,307.036011 
z"/>
<path fill="#00215A" opacity="1.000000" stroke="none" 
	d="
M449.441711,224.876846 
	C447.128662,225.807724 445.067993,226.455963 443.159363,227.408813 
	C397.879425,250.013931 352.599335,272.618988 307.358276,295.301758 
	C291.791412,303.106567 275.285156,306.712738 257.513977,306.959076 
	C257.042969,278.965332 257.021301,250.995514 257.008240,222.563995 
	C271.175781,221.260040 284.525818,217.987381 296.049072,209.174438 
	C302.748688,204.050629 308.251068,197.920547 311.788879,190.205261 
	C312.751556,188.105774 313.650604,186.787766 316.391357,186.792603 
	C371.289429,186.889496 426.187653,186.871674 481.085876,186.889999 
	C481.552429,186.890152 482.018921,187.067932 482.976074,187.262543 
	C482.976074,193.845367 482.976074,200.448364 482.912292,207.514832 
	C471.820648,213.564240 460.792786,219.150177 449.441711,224.876846 
z"/>
<path fill="#00215A" opacity="1.000000" stroke="none" 
	d="
M511.891235,163.648743 
	C506.737854,157.583847 499.981995,156.006714 492.008881,156.033951 
	C434.097900,156.231781 376.185883,156.099945 318.274536,156.235077 
	C314.589661,156.243668 312.870453,155.115936 311.177795,151.859756 
	C301.950104,134.108215 286.454926,125.269363 267.288269,122.019386 
	C264.181305,121.492554 261.008667,121.353310 257.441345,120.966362 
	C257.013519,92.958916 257.010712,65.020027 257.014465,36.623169 
	C273.821716,35.122898 289.750916,38.571659 304.739716,46.025829 
	C366.311249,76.646416 427.892639,107.249207 489.288635,138.218887 
	C499.727386,143.484451 509.176208,150.604156 511.891235,163.648743 
z"/>
<path fill="#FED301" opacity="1.000000" stroke="none" 
	d="
M256.615662,121.284241 
	C257.030060,154.476395 257.018524,187.629700 257.024414,221.229980 
	C236.461273,221.253281 218.875336,214.159134 206.537308,197.218735 
	C191.818069,177.008896 196.734192,149.715988 216.850159,134.839615 
	C228.605865,126.145927 241.632690,121.598747 256.615662,121.284241 
z"/>
</svg>