<svg version="1.1" id="Layer_1" xmlns="http://www.w3.org/2000/svg" xmlns:xlink="http://www.w3.org/1999/xlink" x="0px" y="0px"
	 width="100%" viewBox="0 0 512 512" enable-background="new 0 0 512 512" xml:space="preserve">
<path fill="#FFFFFF" opacity="1.000000" stroke="none" 
	d="
M0.999999,247.000000 
	C1.000000,165.035431 1.000000,83.070847 1.000000,1.053138 
	C171.557495,1.053138 342.115021,1.053138 513.000000,1.053138 
	C513.000000,83.021721 513.000000,165.043884 512.633545,247.362579 
	C511.478455,235.866196 505.353027,226.439926 497.538177,218.505325 
	C486.826904,207.629883 473.510620,203.344116 457.837067,203.669586 
	C443.621002,203.964828 432.020569,208.369141 421.648468,218.047791 
	C410.442200,229.209076 404.837860,242.383179 405.098206,258.402435 
	C405.883331,288.121307 430.871887,311.935425 459.246216,310.905792 
	C459.677155,310.917664 459.848785,310.877319 460.462311,310.900269 
	C478.797058,310.532440 493.185364,303.086914 503.046112,288.263855 
	C507.332611,281.820190 509.739441,274.126129 513.000000,267.000000 
	C513.000000,348.964539 513.000000,430.929077 513.000000,512.946777 
	C342.442596,512.946777 171.885193,512.946777 1.000000,512.946777 
	C1.000000,431.311615 1.000000,349.622772 1.346769,267.651123 
	C4.313893,289.115234 28.411259,312.520203 54.280853,310.881348 
	C54.709740,310.892426 54.880737,310.856079 55.490463,310.891418 
	C74.815437,310.803772 89.083046,301.988007 99.915176,287.111053 
	C110.073906,273.158936 110.341049,257.205872 106.467606,241.560394 
	C102.140068,224.080826 90.165443,211.961884 73.185669,206.346786 
	C65.464859,203.793564 56.614933,204.242020 48.264359,204.103912 
	C36.139240,203.903381 26.151402,209.096405 17.598186,217.935486 
	C15.146827,220.398956 12.483189,222.519943 11.062323,225.280563 
	C7.414016,232.368958 4.317238,239.741211 0.999999,247.000000 
M203.019394,257.903168 
	C202.180634,287.097198 229.487381,312.708008 257.930389,310.962921 
	C262.169495,310.526611 266.635284,310.804077 270.611877,309.541199 
	C302.753662,299.333557 315.528778,273.721100 309.483154,243.881363 
	C305.760193,225.505661 293.490295,212.141449 275.301666,206.334137 
	C267.534607,203.854248 258.720917,204.264923 250.368179,204.099014 
	C238.184326,203.856995 228.410904,209.585526 219.331024,218.167709 
	C208.586960,228.885483 202.492264,241.539413 203.019394,257.903168 
z"/>
<path fill="#6828BF" opacity="1.000000" stroke="none" 
	d="
M421.962799,217.913513 
	C432.020569,208.369141 443.621002,203.964828 457.837067,203.669586 
	C473.510620,203.344116 486.826904,207.629883 497.538177,218.505325 
	C505.353027,226.439926 511.478455,235.866196 512.633545,247.829559 
	C513.000000,254.021149 513.000000,260.042297 513.000000,266.531738 
	C509.739441,274.126129 507.332611,281.820190 503.046112,288.263855 
	C493.185364,303.086914 478.797058,310.532440 460.499023,310.567261 
	C469.140289,301.901855 478.186676,293.632690 487.233063,285.363556 
	C487.086761,284.440704 486.940460,283.517853 486.794159,282.595001 
	C485.236542,281.605804 483.435638,280.861237 482.157867,279.590607 
	C463.256439,260.795410 444.407135,241.947601 425.609650,223.048447 
	C424.149292,221.580215 423.167206,219.636322 421.962799,217.913513 
z"/>
<path fill="#7D38CE" opacity="1.000000" stroke="none" 
	d="
M0.999999,247.458069 
	C4.317238,239.741211 7.414016,232.368958 11.062323,225.280563 
	C12.483189,222.519943 15.146827,220.398956 17.610720,218.308777 
	C19.113209,220.380920 19.986017,222.392532 21.425407,223.841187 
	C40.083668,242.619446 58.825668,261.314514 77.533630,280.043427 
	C78.779526,281.290710 79.921219,282.642090 82.350601,285.301727 
	C73.025078,294.018890 64.038399,302.419312 55.051723,310.819763 
	C54.880737,310.856079 54.709740,310.892426 54.230370,310.549805 
	C53.477470,309.485870 53.137383,308.696747 52.573215,308.131195 
	C36.515385,292.033752 20.446547,275.947235 4.326882,259.911804 
	C3.450868,259.040375 2.119435,258.626740 1.000000,258.000000 
	C1.000000,254.638718 1.000000,251.277420 0.999999,247.458069 
z"/>
<path fill="#8C4CE6" opacity="1.000000" stroke="none" 
	d="
M1.000000,258.449982 
	C2.119435,258.626740 3.450868,259.040375 4.326882,259.911804 
	C20.446547,275.947235 36.515385,292.033752 52.573215,308.131195 
	C53.137383,308.696747 53.477470,309.485870 53.972481,310.502319 
	C28.411259,312.520203 4.313893,289.115234 1.346769,267.184143 
	C1.000000,264.299988 1.000000,261.599976 1.000000,258.449982 
z"/>
<path fill="#6828BF" opacity="1.000000" stroke="none" 
	d="
M219.951965,217.895935 
	C228.410904,209.585526 238.184326,203.856995 250.368179,204.099014 
	C258.720917,204.264923 267.534607,203.854248 275.301666,206.334137 
	C293.490295,212.141449 305.760193,225.505661 309.483154,243.881363 
	C315.528778,273.721100 302.753662,299.333557 270.611877,309.541199 
	C266.635284,310.804077 262.169495,310.526611 257.471008,310.691223 
	C257.011597,310.419525 256.995026,310.000702 257.296753,309.859802 
	C266.140533,301.189148 274.682556,292.659393 284.125305,283.230255 
	C282.033142,281.707550 280.370667,280.798065 279.081299,279.513947 
	C260.434967,260.943787 241.809052,242.352676 223.285675,223.660156 
	C221.774445,222.135132 221.044785,219.835587 219.951965,217.895935 
z"/>
<path fill="#6828BF" opacity="1.000000" stroke="none" 
	d="
M55.490456,310.891418 
	C64.038399,302.419312 73.025078,294.018890 82.350601,285.301727 
	C79.921219,282.642090 78.779526,281.290710 77.533630,280.043427 
	C58.825668,261.314514 40.083668,242.619446 21.425407,223.841187 
	C19.986017,222.392532 19.113209,220.380920 17.964527,218.257660 
	C26.151402,209.096405 36.139240,203.903381 48.264359,204.103912 
	C56.614933,204.242020 65.464859,203.793564 73.185669,206.346786 
	C90.165443,211.961884 102.140068,224.080826 106.467606,241.560394 
	C110.341049,257.205872 110.073906,273.158936 99.915176,287.111053 
	C89.083046,301.988007 74.815437,310.803772 55.490456,310.891418 
z"/>
<path fill="#7D38CE" opacity="1.000000" stroke="none" 
	d="
M421.648468,218.047791 
	C423.167206,219.636322 424.149292,221.580215 425.609650,223.048447 
	C444.407135,241.947601 463.256439,260.795410 482.157867,279.590607 
	C483.435638,280.861237 485.236542,281.605804 486.794159,282.595001 
	C486.940460,283.517853 487.086761,284.440704 487.233063,285.363556 
	C478.186676,293.632690 469.140289,301.901855 460.057190,310.503967 
	C459.848785,310.877319 459.677155,310.917664 459.084961,310.625275 
	C441.935089,293.519653 425.215546,276.736908 408.448578,260.001709 
	C407.563843,259.118683 406.277008,258.638550 405.177368,257.970856 
	C404.837860,242.383179 410.442200,229.209076 421.648468,218.047791 
z"/>
<path fill="#7D38CE" opacity="1.000000" stroke="none" 
	d="
M219.641495,218.031830 
	C221.044785,219.835587 221.774445,222.135132 223.285675,223.660156 
	C241.809052,242.352676 260.434967,260.943787 279.081299,279.513947 
	C280.370667,280.798065 282.033142,281.707550 284.125305,283.230255 
	C274.682556,292.659393 266.140533,301.189148 256.996033,309.718445 
	C253.774033,307.159424 251.137695,304.617859 248.537735,302.039551 
	C233.405945,287.033813 218.282684,272.019470 203.156540,257.008026 
	C202.492264,241.539413 208.586960,228.885483 219.641495,218.031830 
z"/>
<path fill="#8C4CE6" opacity="1.000000" stroke="none" 
	d="
M203.087967,257.455597 
	C218.282684,272.019470 233.405945,287.033813 248.537735,302.039551 
	C251.137695,304.617859 253.774033,307.159424 256.694275,309.859344 
	C256.995026,310.000702 257.011597,310.419525 257.024536,310.628662 
	C229.487381,312.708008 202.180634,287.097198 203.087967,257.455597 
z"/>
<path fill="#8C4CE6" opacity="1.000000" stroke="none" 
	d="
M405.098206,258.402435 
	C406.277008,258.638550 407.563843,259.118683 408.448578,260.001709 
	C425.215546,276.736908 441.935089,293.519653 458.825684,310.573059 
	C430.871887,311.935425 405.883331,288.121307 405.098206,258.402435 
z"/>
</svg>