<svg version="1.1" id="Layer_1" xmlns="http://www.w3.org/2000/svg" xmlns:xlink="http://www.w3.org/1999/xlink" x="0px" y="0px"
	 width="100%" viewBox="0 0 512 512" enable-background="new 0 0 512 512" xml:space="preserve">
<path fill="#E9E9E9" opacity="1.000000" stroke="none" 
	d="
M1.000008,458.000000 
	C1.000000,311.309265 1.000000,164.618515 1.468657,17.464211 
	C135.142532,17.000742 268.347748,17.000452 401.552948,17.002089 
	C407.991394,17.002167 407.996735,17.010057 407.997833,23.574869 
	C408.001465,45.387222 408.000916,67.199577 407.962830,89.478622 
	C407.931946,208.847244 407.763580,327.749725 408.131805,446.650543 
	C408.189484,465.283051 418.080383,479.507660 434.113800,488.858795 
	C439.600494,492.058746 445.995575,493.701202 451.666779,496.328674 
	C449.712524,496.734283 448.067108,496.982117 446.421631,496.982361 
	C315.877533,497.000275 185.333450,497.011017 54.789398,496.942169 
	C50.679070,496.940002 46.449390,496.574677 42.479538,495.571014 
	C23.880037,490.868713 10.542483,479.993958 3.717465,461.693787 
	C3.203731,460.316284 1.923784,459.224548 1.000008,458.000000 
M260.900391,410.290100 
	C288.678589,410.290100 316.456818,410.290100 344.431335,410.290100 
	C344.431335,364.958160 344.431335,320.130737 344.431335,275.263855 
	C316.005554,275.263855 288.031342,275.263855 259.117493,275.156525 
	C231.523483,275.156525 203.929474,275.156525 176.181671,275.156525 
	C176.181671,320.429962 176.181671,365.092773 176.181671,410.052277 
	C204.409531,410.052277 232.197449,410.052277 260.900391,410.290100 
M189.500031,224.257172 
	C147.900543,224.257172 106.301064,224.257172 64.605301,224.257172 
	C64.605301,235.794998 64.605301,246.668045 64.605301,257.543945 
	C157.925964,257.543945 250.837204,257.543945 343.822571,257.543945 
	C343.822571,246.363739 343.822571,235.500549 343.822571,224.257385 
	C292.429993,224.257385 241.465027,224.257385 189.500031,224.257172 
M287.500061,173.616760 
	C213.245346,173.616760 138.990631,173.616760 64.527267,173.616760 
	C64.527267,185.043839 64.527267,195.774673 64.527267,206.571350 
	C157.883621,206.571350 250.919388,206.571350 343.838013,206.571350 
	C343.838013,195.442734 343.838013,184.697540 343.838013,173.616333 
	C325.124603,173.616333 306.812347,173.616333 287.500061,173.616760 
M253.197769,113.681885 
	C251.753250,118.200287 250.308731,122.718689 248.735214,127.640579 
	C245.074432,120.779015 243.932785,114.464203 247.409622,107.675720 
	C249.060822,104.451805 249.900894,100.805115 251.034454,97.325829 
	C251.875046,94.745804 252.596329,92.126907 253.551132,88.919319 
	C249.513382,88.919319 246.344269,89.154076 243.226578,88.854179 
	C240.023788,88.546104 238.837479,90.076851 238.137222,92.845558 
	C237.138138,96.795692 235.884064,100.681335 234.738907,104.594528 
	C232.564758,100.386543 231.447479,96.099831 230.015793,91.920830 
	C229.619888,90.765236 228.350189,89.160408 227.375687,89.082413 
	C223.360947,88.761078 219.305527,88.947906 214.660660,88.947906 
	C217.493378,97.286133 219.692871,104.791595 222.606461,112.008781 
	C224.915298,117.727951 221.804962,121.854401 219.990601,126.531555 
	C215.879837,115.250282 212.388367,103.991364 208.690811,92.800545 
	C208.207306,91.337173 206.753922,89.224274 205.598892,89.122391 
	C200.858582,88.704216 196.059906,88.947662 190.579224,88.947662 
	C191.404938,91.342102 191.926392,93.045647 192.573257,94.700165 
	C198.267731,109.265434 203.985382,123.821640 209.694351,138.381241 
	C213.108810,147.089218 213.106216,146.982071 222.351517,146.884735 
	C225.102921,146.855759 226.534592,146.012512 227.480042,143.368179 
	C229.418549,137.946335 231.715256,132.652527 234.022293,126.913452 
	C234.632141,127.661613 234.895920,127.868729 235.006531,128.138641 
	C236.457260,131.678635 237.833862,135.249802 239.330917,138.769836 
	C243.488480,148.545532 240.494354,146.419159 251.259171,146.895020 
	C254.741425,147.048965 256.147186,145.690781 257.332794,142.584641 
	C263.621429,126.109238 270.166199,109.731659 276.589508,93.307419 
	C277.088989,92.030220 277.337524,90.654892 277.814301,88.918892 
	C273.230621,88.918892 269.233978,89.101509 265.262909,88.861107 
	C262.086243,88.668793 260.501404,89.677162 259.635559,92.904526 
	C257.827087,99.645409 255.555557,106.262054 253.197769,113.681885 
M69.687286,275.116119 
	C67.940491,275.200714 66.193695,275.285309 64.533676,275.365692 
	C64.533676,286.753357 64.533676,297.503906 64.533676,308.387817 
	C90.761986,308.387817 116.648903,308.387817 142.502594,308.387817 
	C142.502594,297.144775 142.502594,286.265076 142.502594,275.116150 
	C118.268990,275.116150 94.456009,275.116150 69.687286,275.116119 
M142.915390,354.247955 
	C142.915390,344.984100 142.915390,335.720276 142.915390,326.328186 
	C116.435822,326.328186 90.568756,326.328186 64.453690,326.328186 
	C64.453690,337.364075 64.453690,348.101288 64.453690,359.008484 
	C65.437752,359.206238 66.228401,359.503204 67.019386,359.504089 
	C91.153198,359.531586 115.287315,359.476379 139.420609,359.591980 
	C142.944580,359.608856 143.135925,357.745087 142.915390,354.247955 
M84.500198,410.215729 
	C103.881187,410.215729 123.262177,410.215729 142.516846,410.215729 
	C142.516846,398.610748 142.516846,387.890167 142.516846,377.363464 
	C116.247627,377.363464 90.377686,377.363464 64.635597,377.363464 
	C64.635597,388.488617 64.635597,399.194794 64.635597,410.215881 
	C71.207825,410.215881 77.354134,410.215881 84.500198,410.215729 
M86.099747,142.269531 
	C86.883224,143.775650 87.540016,146.484604 88.471786,146.582748 
	C92.850029,147.043884 97.303795,146.787903 102.156731,146.787903 
	C102.156731,137.269562 102.156731,128.543182 102.156731,118.485252 
	C108.612198,126.439629 114.865372,132.952942 119.667572,140.401688 
	C124.342873,147.653625 130.399414,147.336929 137.497192,146.437775 
	C137.497192,127.250710 137.497192,108.362396 137.497192,89.213257 
	C132.274048,89.213257 127.376259,89.213257 121.768295,89.213257 
	C121.768295,98.479828 121.768295,107.466042 121.768295,116.452255 
	C115.015854,109.576942 108.705070,102.829277 103.867638,95.153130 
	C99.321815,87.939713 93.361534,88.486938 86.099693,89.311012 
	C86.099693,106.769012 86.099693,124.042892 86.099747,142.269531 
M167.709885,110.917641 
	C163.139267,110.298851 162.745880,109.361633 164.703537,102.670288 
	C172.234436,102.670288 179.969879,102.670288 187.636688,102.670288 
	C187.636688,97.782967 187.636688,93.541176 187.636688,89.191788 
	C174.173630,89.191788 161.085022,89.191788 148.027618,89.191788 
	C147.771149,89.902878 147.461151,90.362854 147.459854,90.823692 
	C147.410736,108.312042 147.424484,125.800659 147.332108,143.288712 
	C147.316315,146.274582 148.787842,146.871918 151.380051,146.850784 
	C161.540100,146.767929 171.701233,146.818176 181.861954,146.818893 
	C184.101608,146.819061 186.341263,146.818924 188.435822,146.818924 
	C188.435822,141.660339 188.435822,137.432159 188.435822,132.721329 
	C180.062012,132.721329 172.127014,132.721329 163.962097,132.721329 
	C163.962097,129.643906 163.962097,127.073547 163.962097,123.842606 
	C167.710129,123.842606 171.159164,123.842606 174.608185,123.842606 
	C185.564545,123.842598 185.569092,123.842178 184.552582,112.842110 
	C184.508972,112.370300 184.238754,111.919426 183.881073,110.918747 
	C178.901306,110.918747 173.782654,110.918747 167.709885,110.917641 
M296.438812,106.823822 
	C295.036804,103.138039 297.736328,102.483795 300.046082,102.877792 
	C305.210449,103.758728 310.271820,105.243523 316.089905,106.655853 
	C317.885956,103.224968 320.007355,99.172577 322.877167,93.690590 
	C314.957092,91.755028 307.890808,88.967705 300.671417,88.488762 
	C286.475128,87.546974 276.908752,99.132408 279.861969,112.242538 
	C281.023071,117.396935 284.656891,120.130615 289.009369,122.003777 
	C293.734436,124.037292 298.740021,125.417137 303.474792,127.431183 
	C304.650452,127.931267 305.253113,129.778458 306.119141,131.006454 
	C304.880280,131.658890 303.702698,132.560577 302.383209,132.885025 
	C301.324463,133.145355 300.038391,132.883835 298.948517,132.546265 
	C293.777588,130.944687 288.639343,129.237640 283.161438,127.461823 
	C281.101959,131.646942 278.945038,136.030167 276.719177,140.553391 
	C286.955505,146.329117 297.299500,148.206131 308.127930,146.778290 
	C317.264374,145.573563 322.949066,139.339935 323.777985,130.547760 
	C324.551880,122.339333 320.555389,116.464157 311.850677,113.086647 
	C306.903473,111.167084 301.935333,109.301476 296.438812,106.823822 
z"/>
<path fill="#A6A5AB" opacity="1.000000" stroke="none" 
	d="
M451.975586,496.055237 
	C445.995575,493.701202 439.600494,492.058746 434.113800,488.858795 
	C418.080383,479.507660 408.189484,465.283051 408.131805,446.650543 
	C407.763580,327.749725 407.931946,208.847244 408.431305,89.474152 
	C443.625946,89.001999 478.312958,89.000999 513.000000,89.000000 
	C513.000000,210.354233 513.000000,331.708466 512.683228,453.733887 
	C509.199432,468.309448 502.088257,479.512238 490.093201,487.531372 
	C478.450867,495.314758 465.781860,498.134705 451.975586,496.055237 
z"/>
<path fill="#FFFFFF" opacity="1.000000" stroke="none" 
	d="
M513.000000,88.531342 
	C478.312958,89.000999 443.625946,89.001999 408.470428,89.007462 
	C408.000916,67.199577 408.001465,45.387222 407.997833,23.574869 
	C407.996735,17.010057 407.991394,17.002167 401.552948,17.002089 
	C268.347748,17.000452 135.142532,17.000742 1.468657,17.000326 
	C1.000000,11.670456 1.000000,6.340911 1.000000,1.062269 
	C171.666672,1.062269 342.333344,1.062269 513.000000,1.062269 
	C513.000000,30.103920 513.000000,59.083302 513.000000,88.531342 
z"/>
<path fill="#FFFFFF" opacity="1.000000" stroke="none" 
	d="
M451.666779,496.328674 
	C465.781860,498.134705 478.450867,495.314758 490.093201,487.531372 
	C502.088257,479.512238 509.199432,468.309448 512.683228,454.202515 
	C513.000000,473.652924 513.000000,493.305817 513.000000,512.954285 
	C342.333313,512.949829 171.666656,512.949829 1.000000,512.949829 
	C1.000000,494.912262 1.000000,476.924774 1.000008,458.468658 
	C1.923784,459.224548 3.203731,460.316284 3.717465,461.693787 
	C10.542483,479.993958 23.880037,490.868713 42.479538,495.571014 
	C46.449390,496.574677 50.679070,496.940002 54.789398,496.942169 
	C185.333450,497.011017 315.877533,497.000275 446.421631,496.982361 
	C448.067108,496.982117 449.712524,496.734283 451.666779,496.328674 
z"/>
<path fill="#E49525" opacity="1.000000" stroke="none" 
	d="
M260.057129,275.263855 
	C288.031342,275.263855 316.005554,275.263855 344.431335,275.263855 
	C344.431335,320.130737 344.431335,364.958160 344.431335,410.290100 
	C316.456818,410.290100 288.678589,410.290100 260.447510,409.698364 
	C260.015472,364.492340 260.036285,319.878113 260.057129,275.263855 
z"/>
<path fill="#E8A944" opacity="1.000000" stroke="none" 
	d="
M259.587311,275.210205 
	C260.036285,319.878113 260.015472,364.492340 259.989990,409.579437 
	C232.197449,410.052277 204.409531,410.052277 176.181671,410.052277 
	C176.181671,365.092773 176.181671,320.429962 176.181671,275.156525 
	C203.929474,275.156525 231.523483,275.156525 259.587311,275.210205 
z"/>
<path fill="#5E5E62" opacity="1.000000" stroke="none" 
	d="
M190.000031,224.257278 
	C241.465027,224.257385 292.429993,224.257385 343.822571,224.257385 
	C343.822571,235.500549 343.822571,246.363739 343.822571,257.543945 
	C250.837204,257.543945 157.925964,257.543945 64.605301,257.543945 
	C64.605301,246.668045 64.605301,235.794998 64.605301,224.257172 
	C106.301064,224.257172 147.900543,224.257172 190.000031,224.257278 
z"/>
<path fill="#5C5C60" opacity="1.000000" stroke="none" 
	d="
M288.000061,173.616547 
	C306.812347,173.616333 325.124603,173.616333 343.838013,173.616333 
	C343.838013,184.697540 343.838013,195.442734 343.838013,206.571350 
	C250.919388,206.571350 157.883621,206.571350 64.527267,206.571350 
	C64.527267,195.774673 64.527267,185.043839 64.527267,173.616760 
	C138.990631,173.616760 213.245346,173.616760 288.000061,173.616547 
z"/>
<path fill="#E8AA47" opacity="1.000000" stroke="none" 
	d="
M253.335999,113.305809 
	C255.555557,106.262054 257.827087,99.645409 259.635559,92.904526 
	C260.501404,89.677162 262.086243,88.668793 265.262909,88.861107 
	C269.233978,89.101509 273.230621,88.918892 277.814301,88.918892 
	C277.337524,90.654892 277.088989,92.030220 276.589508,93.307419 
	C270.166199,109.731659 263.621429,126.109238 257.332794,142.584641 
	C256.147186,145.690781 254.741425,147.048965 251.259171,146.895020 
	C240.494354,146.419159 243.488480,148.545532 239.330917,138.769836 
	C237.833862,135.249802 236.457260,131.678635 235.006531,128.138641 
	C234.895920,127.868729 234.632141,127.661613 234.022293,126.913452 
	C231.715256,132.652527 229.418549,137.946335 227.480042,143.368179 
	C226.534592,146.012512 225.102921,146.855759 222.351517,146.884735 
	C213.106216,146.982071 213.108810,147.089218 209.694351,138.381241 
	C203.985382,123.821640 198.267731,109.265434 192.573257,94.700165 
	C191.926392,93.045647 191.404938,91.342102 190.579224,88.947662 
	C196.059906,88.947662 200.858582,88.704216 205.598892,89.122391 
	C206.753922,89.224274 208.207306,91.337173 208.690811,92.800545 
	C212.388367,103.991364 215.879837,115.250282 219.990601,126.531555 
	C221.804962,121.854401 224.915298,117.727951 222.606461,112.008781 
	C219.692871,104.791595 217.493378,97.286133 214.660660,88.947906 
	C219.305527,88.947906 223.360947,88.761078 227.375687,89.082413 
	C228.350189,89.160408 229.619888,90.765236 230.015793,91.920830 
	C231.447479,96.099831 232.564758,100.386543 234.738907,104.594528 
	C235.884064,100.681335 237.138138,96.795692 238.137222,92.845558 
	C238.837479,90.076851 240.023788,88.546104 243.226578,88.854179 
	C246.344269,89.154076 249.513382,88.919319 253.551132,88.919319 
	C252.596329,92.126907 251.875046,94.745804 251.034454,97.325829 
	C249.900894,100.805115 249.060822,104.451805 247.409622,107.675720 
	C243.932785,114.464203 245.074432,120.779015 248.735214,127.640579 
	C250.308731,122.718689 251.753250,118.200287 253.335999,113.305809 
z"/>
<path fill="#5E5E62" opacity="1.000000" stroke="none" 
	d="
M70.165161,275.116150 
	C94.456009,275.116150 118.268990,275.116150 142.502594,275.116150 
	C142.502594,286.265076 142.502594,297.144775 142.502594,308.387817 
	C116.648903,308.387817 90.761986,308.387817 64.533676,308.387817 
	C64.533676,297.503906 64.533676,286.753357 64.533676,275.365692 
	C66.193695,275.285309 67.940491,275.200714 70.165161,275.116150 
z"/>
<path fill="#5C5C60" opacity="1.000000" stroke="none" 
	d="
M142.915283,354.715027 
	C143.135925,357.745087 142.944580,359.608856 139.420609,359.591980 
	C115.287315,359.476379 91.153198,359.531586 67.019386,359.504089 
	C66.228401,359.503204 65.437752,359.206238 64.453690,359.008484 
	C64.453690,348.101288 64.453690,337.364075 64.453690,326.328186 
	C90.568756,326.328186 116.435822,326.328186 142.915390,326.328186 
	C142.915390,335.720276 142.915390,344.984100 142.915283,354.715027 
z"/>
<path fill="#5C5C60" opacity="1.000000" stroke="none" 
	d="
M84.000320,410.215820 
	C77.354134,410.215881 71.207825,410.215881 64.635597,410.215881 
	C64.635597,399.194794 64.635597,388.488617 64.635597,377.363464 
	C90.377686,377.363464 116.247627,377.363464 142.516846,377.363464 
	C142.516846,387.890167 142.516846,398.610748 142.516846,410.215729 
	C123.262177,410.215729 103.881187,410.215729 84.000320,410.215820 
z"/>
<path fill="#E8AA48" opacity="1.000000" stroke="none" 
	d="
M86.099716,141.793152 
	C86.099693,124.042892 86.099693,106.769012 86.099693,89.311012 
	C93.361534,88.486938 99.321815,87.939713 103.867638,95.153130 
	C108.705070,102.829277 115.015854,109.576942 121.768295,116.452255 
	C121.768295,107.466042 121.768295,98.479828 121.768295,89.213257 
	C127.376259,89.213257 132.274048,89.213257 137.497192,89.213257 
	C137.497192,108.362396 137.497192,127.250710 137.497192,146.437775 
	C130.399414,147.336929 124.342873,147.653625 119.667572,140.401688 
	C114.865372,132.952942 108.612198,126.439629 102.156731,118.485252 
	C102.156731,128.543182 102.156731,137.269562 102.156731,146.787903 
	C97.303795,146.787903 92.850029,147.043884 88.471786,146.582748 
	C87.540016,146.484604 86.883224,143.775650 86.099716,141.793152 
z"/>
<path fill="#E8AA47" opacity="1.000000" stroke="none" 
	d="
M168.186951,110.918198 
	C173.782654,110.918747 178.901306,110.918747 183.881073,110.918747 
	C184.238754,111.919426 184.508972,112.370300 184.552582,112.842110 
	C185.569092,123.842178 185.564545,123.842598 174.608185,123.842606 
	C171.159164,123.842606 167.710129,123.842606 163.962097,123.842606 
	C163.962097,127.073547 163.962097,129.643906 163.962097,132.721329 
	C172.127014,132.721329 180.062012,132.721329 188.435822,132.721329 
	C188.435822,137.432159 188.435822,141.660339 188.435822,146.818924 
	C186.341263,146.818924 184.101608,146.819061 181.861954,146.818893 
	C171.701233,146.818176 161.540100,146.767929 151.380051,146.850784 
	C148.787842,146.871918 147.316315,146.274582 147.332108,143.288712 
	C147.424484,125.800659 147.410736,108.312042 147.459854,90.823692 
	C147.461151,90.362854 147.771149,89.902878 148.027618,89.191788 
	C161.085022,89.191788 174.173630,89.191788 187.636688,89.191788 
	C187.636688,93.541176 187.636688,97.782967 187.636688,102.670288 
	C179.969879,102.670288 172.234436,102.670288 164.703537,102.670288 
	C162.745880,109.361633 163.139267,110.298851 168.186951,110.918198 
z"/>
<path fill="#E8AA47" opacity="1.000000" stroke="none" 
	d="
M296.707703,107.117691 
	C301.935333,109.301476 306.903473,111.167084 311.850677,113.086647 
	C320.555389,116.464157 324.551880,122.339333 323.777985,130.547760 
	C322.949066,139.339935 317.264374,145.573563 308.127930,146.778290 
	C297.299500,148.206131 286.955505,146.329117 276.719177,140.553391 
	C278.945038,136.030167 281.101959,131.646942 283.161438,127.461823 
	C288.639343,129.237640 293.777588,130.944687 298.948517,132.546265 
	C300.038391,132.883835 301.324463,133.145355 302.383209,132.885025 
	C303.702698,132.560577 304.880280,131.658890 306.119141,131.006439 
	C305.253113,129.778458 304.650452,127.931267 303.474792,127.431183 
	C298.740021,125.417137 293.734436,124.037292 289.009369,122.003777 
	C284.656891,120.130615 281.023071,117.396935 279.861969,112.242538 
	C276.908752,99.132408 286.475128,87.546974 300.671417,88.488762 
	C307.890808,88.967705 314.957092,91.755028 322.877167,93.690590 
	C320.007355,99.172577 317.885956,103.224968 316.089905,106.655853 
	C310.271820,105.243523 305.210449,103.758728 300.046082,102.877792 
	C297.736328,102.483795 295.036804,103.138039 296.707703,107.117691 
z"/>
</svg>