<svg version="1.1" id="Layer_1" xmlns="http://www.w3.org/2000/svg" xmlns:xlink="http://www.w3.org/1999/xlink" x="0px" y="0px"
	 width="100%" viewBox="0 0 512 512" enable-background="new 0 0 512 512" xml:space="preserve">
<path fill="#FFFFFF" opacity="1.000000" stroke="none" 
	d="
M378.000000,0.999998 
	C422.972717,1.000000 467.945435,1.000000 512.946167,1.000000 
	C512.946167,171.666672 512.946167,342.333344 512.946167,513.000000 
	C488.240692,513.000000 463.589020,513.000000 438.468658,512.532104 
	C437.937195,506.391754 437.874359,500.719330 437.890076,494.634491 
	C438.247498,484.939453 430.772980,478.254272 421.058929,476.500000 
	C420.954590,470.701355 420.895569,465.365845 420.903992,459.633057 
	C419.040558,446.810394 412.884491,443.237244 403.010132,441.514984 
	C394.656860,416.329315 386.410339,391.496765 377.923431,366.746674 
	C377.063019,364.237549 374.754303,362.225037 373.021851,359.723267 
	C372.620148,359.277344 372.314240,359.090210 372.023804,358.943451 
	C372.039246,358.983856 372.116333,358.944550 371.978241,358.645905 
	C370.912415,357.850739 369.984650,357.354248 369.046021,356.897156 
	C369.035126,356.936554 369.116882,356.937622 368.969666,356.631409 
	C364.328217,352.495667 359.872894,348.619293 355.331604,344.846466 
	C346.012451,337.104095 336.606354,329.465607 327.344299,321.656006 
	C325.934998,320.467712 324.223267,318.628326 324.156982,317.027740 
	C323.829376,309.114502 324.007812,301.180298 324.007812,293.082031 
	C341.679169,297.422668 358.817566,301.632385 376.348755,305.920288 
	C381.614136,307.317657 386.450836,308.808167 391.383209,309.842712 
	C392.716339,310.122314 395.023834,309.491516 395.720917,308.478333 
	C401.333130,300.320862 406.667145,291.971985 412.348633,283.280029 
	C394.406342,268.367432 376.728485,253.674622 359.014282,238.515869 
	C358.921112,227.364288 358.864288,216.678635 358.879303,205.700195 
	C358.646851,204.998917 358.342590,204.590393 357.672546,204.122528 
	C345.891663,209.674698 334.476501,215.286224 322.922363,220.626617 
	C322.201294,220.206253 321.619263,220.057037 320.888489,219.603973 
	C310.868286,211.778351 301.063812,204.164230 291.023102,196.875565 
	C290.002228,196.134506 286.557739,196.731644 285.927429,197.751740 
	C275.674469,214.344986 265.709015,231.115631 255.648590,247.828156 
	C245.998016,263.859863 236.244446,279.830078 226.677368,295.911346 
	C222.971237,302.141022 219.652939,308.601379 216.007172,315.280273 
	C213.782196,318.672577 212.000397,322.004456 209.546051,324.730927 
	C207.385803,327.130646 207.816956,328.517242 210.102707,330.395630 
	C223.499161,349.766632 236.998367,368.754425 250.313339,387.870483 
	C251.295532,389.280609 251.400772,391.677948 251.145844,393.509460 
	C249.911118,402.380219 248.496262,411.228546 246.984360,420.057251 
	C245.725876,427.406158 244.244217,434.716858 242.468262,442.025696 
	C231.706314,443.444519 225.670807,450.281342 226.092438,460.491180 
	C225.991623,466.268951 225.962280,471.586090 225.538055,476.945038 
	C223.915771,477.320374 222.697372,477.692444 221.459549,477.981232 
	C213.102798,479.931152 208.026123,486.448395 208.112671,495.506409 
	C208.025146,501.644012 208.012573,507.322021 208.000000,513.000000 
	C139.038910,513.000000 70.077827,513.000000 1.058372,513.000000 
	C1.058372,342.333344 1.058372,171.666672 1.058372,1.000000 
	C19.750372,1.000000 38.406528,1.000000 57.531357,1.468657 
	C58.049129,19.310846 58.098236,36.684380 58.089508,54.519135 
	C58.031677,72.208824 58.031677,89.437286 58.031677,106.899727 
	C96.472382,106.899727 134.214569,106.899727 172.259186,107.053604 
	C199.015549,133.882248 225.469467,160.557007 252.228592,187.539520 
	C254.595215,184.826904 256.577850,183.011444 258.010834,180.834213 
	C264.878998,170.399002 268.511017,159.259094 267.185822,146.395782 
	C266.201447,136.840775 263.343628,128.352844 257.450714,120.965225 
	C253.538635,116.060883 249.070786,111.599884 245.018707,106.647942 
	C255.776962,95.748329 266.302246,85.073479 277.037018,74.613632 
	C278.496582,73.191452 280.998291,72.128502 283.027863,72.111115 
	C304.013092,71.931297 325.000854,71.944107 345.986511,72.095924 
	C347.894836,72.109718 350.276062,72.964836 351.619812,74.270782 
	C361.771240,84.136604 371.798828,94.134995 381.629425,104.319427 
	C382.898163,105.633858 383.628265,108.434578 383.223328,110.235489 
	C381.177185,119.335541 378.105835,128.232483 376.488525,137.393875 
	C374.865326,146.588303 376.132904,155.735870 380.965607,164.439331 
	C385.532898,174.809143 392.955994,181.868729 402.874786,186.966919 
	C403.894257,185.030975 404.682373,183.598770 405.412872,182.137756 
	C421.638184,149.686066 437.766144,117.184998 454.194916,84.836670 
	C456.203217,80.882332 455.459869,78.817268 452.586151,75.968102 
	C428.839417,52.424519 405.233826,28.738567 381.602692,5.078562 
	C380.323212,3.797531 379.197357,2.363049 378.000000,0.999998 
z"/>
<path fill="#FFB398" opacity="1.000000" stroke="none" 
	d="
M58.147339,54.057911 
	C58.098236,36.684380 58.049129,19.310846 58.000015,1.468657 
	C164.354233,1.000000 270.708466,1.000000 377.531342,0.999998 
	C379.197357,2.363049 380.323212,3.797531 381.602692,5.078562 
	C405.233826,28.738567 428.839417,52.424519 452.586151,75.968102 
	C455.459869,78.817268 456.203217,80.882332 454.194916,84.836670 
	C437.766144,117.184998 421.638184,149.686066 405.412872,182.137756 
	C404.682373,183.598770 403.894257,185.030975 402.874786,186.966919 
	C392.955994,181.868729 385.532898,174.809143 381.250671,164.214478 
	C390.827942,140.387161 400.124390,117.116966 409.582245,93.912567 
	C411.020508,90.383820 410.734131,88.050835 407.836121,85.215393 
	C392.362732,70.076134 377.092010,54.727989 361.886414,39.318626 
	C359.449860,36.849400 356.965790,35.924198 353.547729,35.963840 
	C318.115387,36.374763 282.680786,36.599766 247.249512,37.076748 
	C245.064163,37.106171 242.398590,38.300308 240.810287,39.835762 
	C230.874146,49.441338 221.173111,59.290424 211.419907,69.084457 
	C210.526428,69.981682 209.813370,71.058571 208.771820,72.357132 
	C220.203293,83.734291 231.395157,94.891029 242.633041,106.001198 
	C243.163574,106.525696 244.102814,106.636795 244.851715,106.940422 
	C249.070786,111.599884 253.538635,116.060883 257.450714,120.965225 
	C263.343628,128.352844 266.201447,136.840775 267.185822,146.395782 
	C268.511017,159.259094 264.878998,170.399002 258.010834,180.834213 
	C256.577850,183.011444 254.595215,184.826904 252.228592,187.539520 
	C225.469467,160.557007 199.015549,133.882248 172.239502,106.716888 
	C171.596024,105.656586 171.382751,104.979088 170.937668,104.532745 
	C154.750259,88.300102 138.578491,72.051239 122.260078,55.951061 
	C121.038460,54.745777 118.750008,54.091885 116.952377,54.081676 
	C97.351280,53.970325 77.749176,54.038559 58.147339,54.057911 
z"/>
<path fill="#2E5166" opacity="1.000000" stroke="none" 
	d="
M437.811523,495.046875 
	C437.874359,500.719330 437.937195,506.391754 438.000000,512.532104 
	C361.645782,513.000000 285.291534,513.000000 208.468658,513.000000 
	C208.012573,507.322021 208.025146,501.644012 208.568970,495.501770 
	C285.337341,495.040588 361.574432,495.043732 437.811523,495.046875 
z"/>
<path fill="#F88756" opacity="1.000000" stroke="none" 
	d="
M359.050629,238.981796 
	C376.728485,253.674622 394.406342,268.367432 412.348633,283.280029 
	C406.667145,291.971985 401.333130,300.320862 395.720917,308.478333 
	C395.023834,309.491516 392.716339,310.122314 391.383209,309.842712 
	C386.450836,308.808167 381.614136,307.317657 376.363831,305.462585 
	C375.991089,298.934845 376.175690,292.934174 375.882721,286.956909 
	C375.803070,285.332123 374.687286,282.992004 373.362915,282.311249 
	C357.833313,274.328705 342.211334,266.520996 326.482758,258.938751 
	C325.062531,258.254120 321.917816,258.757355 320.949707,259.887451 
	C308.987091,273.851990 297.265259,288.023132 285.522064,302.174866 
	C283.485352,304.629333 281.637665,307.240662 279.447784,310.114075 
	C308.674652,325.781158 337.203796,341.086304 365.764679,356.332001 
	C366.718140,356.840973 367.992249,356.749298 369.116882,356.937622 
	C369.116882,356.937622 369.035126,356.936554 369.058105,357.266113 
	C370.092804,358.045288 371.104584,358.494934 372.116333,358.944550 
	C372.116333,358.944550 372.039246,358.983856 372.129089,359.193542 
	C372.518524,359.596161 372.818115,359.789093 373.117706,359.982056 
	C374.754303,362.225037 377.063019,364.237549 377.923431,366.746674 
	C386.410339,391.496765 394.656860,416.329315 402.553589,441.646942 
	C367.062805,442.187408 331.989960,442.219421 296.933289,441.767334 
	C296.957977,426.300476 296.693909,411.309937 297.123474,396.339294 
	C297.272949,391.130615 295.319519,388.278046 291.295044,385.490570 
	C268.380127,369.618958 245.653320,353.476013 222.779755,337.544159 
	C218.774780,334.754669 214.376526,332.529755 210.159927,330.044067 
	C207.816956,328.517242 207.385803,327.130646 209.546051,324.730927 
	C212.000397,322.004456 213.782196,318.672577 216.344910,315.256714 
	C219.234299,312.245178 221.853775,309.745331 224.001938,306.890808 
	C244.402786,279.781708 264.750793,252.632645 285.024689,225.428528 
	C287.021637,222.748978 289.254364,221.829498 292.554688,221.899170 
	C302.022491,222.099045 311.497833,221.943985 321.285339,221.928894 
	C322.087463,221.585495 322.574432,221.241623 323.061371,220.897766 
	C334.476501,215.286224 345.891663,209.674698 357.664032,204.347397 
	C358.021271,204.631622 358.016479,205.081741 357.739685,205.266647 
	C352.075348,213.727509 346.687805,222.003464 340.986725,230.761078 
	C347.345490,233.654892 353.198059,236.318344 359.050629,238.981796 
z"/>
<path fill="#FE946F" opacity="1.000000" stroke="none" 
	d="
M245.018707,106.647942 
	C244.102814,106.636795 243.163574,106.525696 242.633041,106.001198 
	C231.395157,94.891029 220.203293,83.734291 208.771820,72.357132 
	C209.813370,71.058571 210.526428,69.981682 211.419907,69.084457 
	C221.173111,59.290424 230.874146,49.441338 240.810287,39.835762 
	C242.398590,38.300308 245.064163,37.106171 247.249512,37.076748 
	C282.680786,36.599766 318.115387,36.374763 353.547729,35.963840 
	C356.965790,35.924198 359.449860,36.849400 361.886414,39.318626 
	C377.092010,54.727989 392.362732,70.076134 407.836121,85.215393 
	C410.734131,88.050835 411.020508,90.383820 409.582245,93.912567 
	C400.124390,117.116966 390.827942,140.387161 381.193787,163.860733 
	C376.132904,155.735870 374.865326,146.588303 376.488525,137.393875 
	C378.105835,128.232483 381.177185,119.335541 383.223328,110.235489 
	C383.628265,108.434578 382.898163,105.633858 381.629425,104.319427 
	C371.798828,94.134995 361.771240,84.136604 351.619812,74.270782 
	C350.276062,72.964836 347.894836,72.109718 345.986511,72.095924 
	C325.000854,71.944107 304.013092,71.931297 283.027863,72.111115 
	C280.998291,72.128502 278.496582,73.191452 277.037018,74.613632 
	C266.302246,85.073479 255.776962,95.748329 245.018707,106.647942 
z"/>
<path fill="#FE946F" opacity="1.000000" stroke="none" 
	d="
M58.089508,54.519135 
	C77.749176,54.038559 97.351280,53.970325 116.952377,54.081676 
	C118.750008,54.091885 121.038460,54.745777 122.260078,55.951061 
	C138.578491,72.051239 154.750259,88.300102 170.937668,104.532745 
	C171.382751,104.979088 171.596024,105.656586 171.937073,106.563004 
	C134.214569,106.899727 96.472382,106.899727 58.031677,106.899727 
	C58.031677,89.437286 58.031677,72.208824 58.089508,54.519135 
z"/>
<path fill="#E15D2D" opacity="1.000000" stroke="none" 
	d="
M210.102707,330.395630 
	C214.376526,332.529755 218.774780,334.754669 222.779755,337.544159 
	C245.653320,353.476013 268.380127,369.618958 291.295044,385.490570 
	C295.319519,388.278046 297.272949,391.130615 297.123474,396.339294 
	C296.693909,411.309937 296.957977,426.300476 296.679932,441.849518 
	C296.055786,442.400940 295.701233,442.386017 294.861267,442.250366 
	C278.843353,442.087189 263.310791,442.032074 247.778229,442.033722 
	C246.845062,442.033844 245.911926,442.486847 244.672424,442.775452 
	C243.864502,442.562653 243.362946,442.303558 242.861389,442.044464 
	C244.244217,434.716858 245.725876,427.406158 246.984360,420.057251 
	C248.496262,411.228546 249.911118,402.380219 251.145844,393.509460 
	C251.400772,391.677948 251.295532,389.280609 250.313339,387.870483 
	C236.998367,368.754425 223.499161,349.766632 210.102707,330.395630 
z"/>
<path fill="#3F708D" opacity="1.000000" stroke="none" 
	d="
M437.890076,494.634491 
	C361.574432,495.043732 285.337341,495.040588 208.643921,495.042145 
	C208.026123,486.448395 213.102798,479.931152 221.459549,477.981232 
	C222.697372,477.692444 223.915771,477.320374 225.829468,477.253479 
	C227.655426,477.671234 228.795013,477.954224 229.934692,477.954620 
	C291.886963,477.976013 353.839233,477.981995 415.791473,477.931335 
	C417.562683,477.929871 419.333344,477.299988 421.104279,476.963104 
	C430.772980,478.254272 438.247498,484.939453 437.890076,494.634491 
z"/>
<path fill="#E15D2D" opacity="1.000000" stroke="none" 
	d="
M368.969666,356.631409 
	C367.992249,356.749298 366.718140,356.840973 365.764679,356.332001 
	C337.203796,341.086304 308.674652,325.781158 279.447784,310.114075 
	C281.637665,307.240662 283.485352,304.629333 285.522064,302.174866 
	C297.265259,288.023132 308.987091,273.851990 320.949707,259.887451 
	C321.917816,258.757355 325.062531,258.254120 326.482758,258.938751 
	C342.211334,266.520996 357.833313,274.328705 373.362915,282.311249 
	C374.687286,282.992004 375.803070,285.332123 375.882721,286.956909 
	C376.175690,292.934174 375.991089,298.934845 375.971069,305.384430 
	C358.817566,301.632385 341.679169,297.422668 324.007812,293.082031 
	C324.007812,301.180298 323.829376,309.114502 324.156982,317.027740 
	C324.223267,318.628326 325.934998,320.467712 327.344299,321.656006 
	C336.606354,329.465607 346.012451,337.104095 355.331604,344.846466 
	C359.872894,348.619293 364.328217,352.495667 368.969666,356.631409 
z"/>
<path fill="#2E5166" opacity="1.000000" stroke="none" 
	d="
M421.058929,476.500000 
	C419.333344,477.299988 417.562683,477.929871 415.791473,477.931335 
	C353.839233,477.981995 291.886963,477.976013 229.934692,477.954620 
	C228.795013,477.954224 227.655426,477.671234 226.224365,477.211670 
	C225.962280,471.586090 225.991623,466.268951 226.550217,460.481506 
	C291.665192,460.017578 356.250885,460.023956 420.836578,460.030334 
	C420.895569,465.365845 420.954590,470.701355 421.058929,476.500000 
z"/>
<path fill="#3F708D" opacity="1.000000" stroke="none" 
	d="
M420.903992,459.633057 
	C356.250885,460.023956 291.665192,460.017578 226.621704,460.020874 
	C225.670807,450.281342 231.706314,443.444519 242.468262,442.025696 
	C243.362946,442.303558 243.864502,442.562653 245.133179,442.876038 
	C258.623108,442.953583 271.346100,443.025208 284.068542,442.970306 
	C287.828705,442.954071 291.587311,442.580780 295.346649,442.371094 
	C295.701233,442.386017 296.055786,442.400940 296.663727,442.333649 
	C331.989960,442.219421 367.062805,442.187408 402.592224,442.023438 
	C412.884491,443.237244 419.040558,446.810394 420.903992,459.633057 
z"/>
<path fill="#E25F2F" opacity="1.000000" stroke="none" 
	d="
M320.970215,221.928436 
	C311.497833,221.943985 302.022491,222.099045 292.554688,221.899170 
	C289.254364,221.829498 287.021637,222.748978 285.024689,225.428528 
	C264.750793,252.632645 244.402786,279.781708 224.001938,306.890808 
	C221.853775,309.745331 219.234299,312.245178 216.495728,314.933105 
	C219.652939,308.601379 222.971237,302.141022 226.677368,295.911346 
	C236.244446,279.830078 245.998016,263.859863 255.648590,247.828156 
	C265.709015,231.115631 275.674469,214.344986 285.927429,197.751740 
	C286.557739,196.731644 290.002228,196.134506 291.023102,196.875565 
	C301.063812,204.164230 310.868286,211.778351 320.876465,219.941132 
	C320.998810,221.030914 320.984497,221.479675 320.970215,221.928436 
z"/>
<path fill="#E15D2D" opacity="1.000000" stroke="none" 
	d="
M359.014282,238.515869 
	C353.198059,236.318344 347.345490,233.654892 340.986725,230.761078 
	C346.687805,222.003464 352.075348,213.727509 357.820099,205.457184 
	C358.333130,205.703934 358.543182,205.880661 358.807495,205.992981 
	C358.864288,216.678635 358.921112,227.364288 359.014282,238.515869 
z"/>
<path fill="#E15D2D" opacity="1.000000" stroke="none" 
	d="
M371.978241,358.645905 
	C371.104584,358.494934 370.092804,358.045288 369.068970,357.226685 
	C369.984650,357.354248 370.912415,357.850739 371.978241,358.645905 
z"/>
<path fill="#E86A3A" opacity="1.000000" stroke="none" 
	d="
M321.285339,221.928894 
	C320.984497,221.479675 320.998810,221.030914 321.025146,220.244980 
	C321.619263,220.057037 322.201294,220.206253 322.922363,220.626617 
	C322.574432,221.241623 322.087463,221.585495 321.285339,221.928894 
z"/>
<path fill="#E86A3A" opacity="1.000000" stroke="none" 
	d="
M358.879303,205.700195 
	C358.543182,205.880661 358.333130,205.703934 358.096893,205.272278 
	C358.016479,205.081741 358.021271,204.631622 358.029785,204.406738 
	C358.342590,204.590393 358.646851,204.998917 358.879303,205.700195 
z"/>
<path fill="#E15D2D" opacity="1.000000" stroke="none" 
	d="
M373.021851,359.723267 
	C372.818115,359.789093 372.518524,359.596161 372.113647,359.153137 
	C372.314240,359.090210 372.620148,359.277344 373.021851,359.723267 
z"/>
<path fill="#B96E54" opacity="1.000000" stroke="none" 
	d="
M294.861267,442.250366 
	C291.587311,442.580780 287.828705,442.954071 284.068542,442.970306 
	C271.346100,443.025208 258.623108,442.953583 245.439545,442.829712 
	C245.911926,442.486847 246.845062,442.033844 247.778229,442.033722 
	C263.310791,442.032074 278.843353,442.087189 294.861267,442.250366 
z"/>
</svg>