<svg version="1.1" id="Layer_1" xmlns="http://www.w3.org/2000/svg" xmlns:xlink="http://www.w3.org/1999/xlink" x="0px" y="0px"
	 width="100%" viewBox="0 0 512 512" enable-background="new 0 0 512 512" xml:space="preserve">
<path fill="#B4E66E" opacity="1.000000" stroke="none" 
	d="
M488.000000,513.000000 
	C418.645782,513.000000 349.291534,513.000000 279.233215,512.750366 
	C274.827667,510.247314 273.914490,506.825989 273.930542,502.697540 
	C274.022308,479.099365 274.018005,455.500519 273.932098,431.902283 
	C273.917053,427.774506 273.544891,423.624603 273.012604,419.527130 
	C271.952789,411.368591 266.065857,406.195770 257.784058,406.013702 
	C253.466125,405.918762 249.143509,406.036407 244.364838,406.044128 
	C238.264359,405.892578 232.618271,405.842834 226.980652,405.597748 
	C217.403549,405.181335 209.731873,408.530518 203.287384,415.822906 
	C196.771088,423.196442 188.467346,427.964996 178.034058,429.144348 
	C168.462494,427.467194 160.500580,423.224854 154.309357,416.533325 
	C144.761276,406.213531 140.517441,393.947845 141.871506,379.583313 
	C143.674515,360.455750 159.455322,343.248596 178.730469,340.797119 
	C188.842926,342.436462 196.977310,347.124420 203.495728,354.343750 
	C209.564972,361.065643 216.725372,364.721527 225.858444,364.394867 
	C232.182129,364.168671 238.511093,364.089539 245.316330,363.960876 
	C249.955414,363.984436 254.118622,364.090729 258.275604,363.974457 
	C263.630768,363.824677 268.391541,361.750854 270.550354,356.830658 
	C272.424866,352.558502 273.780365,347.674774 273.825287,343.046356 
	C274.103333,314.424225 273.945892,285.797821 274.403961,257.126923 
	C300.484772,257.084351 326.094757,257.087677 351.981201,257.318909 
	C360.987732,260.987030 364.771301,267.440338 364.063965,276.722656 
	C363.887573,279.037476 363.824738,281.400269 364.073883,283.701599 
	C365.340363,295.400757 360.932617,304.316406 352.394135,312.395203 
	C340.589722,323.564178 337.646942,338.083313 340.749237,353.711273 
	C344.852386,374.381073 364.842224,391.739319 391.292358,388.732849 
	C428.545654,382.014923 442.539856,339.557922 418.532227,313.920624 
	C408.292542,302.985840 404.550171,292.017395 405.876282,278.109222 
	C405.970673,277.119232 405.884979,276.112640 405.892792,275.113800 
	C405.986115,263.145966 412.127502,257.011932 424.101837,257.005585 
	C453.734558,256.989929 483.367279,257.000183 513.000000,257.000000 
	C513.000000,333.687561 513.000000,410.375122 512.687256,487.718933 
	C510.745911,491.922363 509.381897,495.622772 507.434814,498.985596 
	C503.085114,506.497955 495.601746,509.879730 488.000000,513.000000 
z"/>
<path fill="#FF507D" opacity="1.000000" stroke="none" 
	d="
M50.000000,1.000000 
	C118.687561,1.000000 187.375122,1.000000 256.526978,1.468642 
	C256.994263,31.849821 256.981842,61.762375 257.009918,91.674889 
	C257.017944,100.226288 262.165009,106.687355 270.685822,108.021828 
	C275.377258,108.756577 280.243378,108.376366 285.435181,108.563438 
	C294.084351,108.338081 302.134888,107.567253 308.063721,100.708420 
	C319.636536,87.320198 334.381531,82.239723 352.067566,84.372559 
	C353.793610,85.037529 355.207733,85.516174 356.640198,85.931458 
	C388.938904,95.295105 399.620056,136.501602 376.097595,160.515778 
	C369.458893,167.293243 361.217987,170.814255 352.110840,173.781586 
	C334.611542,175.767075 320.079163,170.822678 308.593628,157.843735 
	C302.235382,150.658722 293.959351,149.249954 284.577393,149.398285 
	C280.960327,149.258636 277.787659,149.030670 274.640594,149.222702 
	C264.606201,149.834900 257.081818,156.312119 257.057587,164.823624 
	C256.970428,195.450409 257.097137,226.077820 257.045715,256.776611 
	C256.948364,256.848236 256.844818,257.066620 256.386719,257.037567 
	C226.608521,257.005554 197.288406,257.037415 167.968430,256.982147 
	C156.579529,256.960663 150.003952,250.357391 149.917389,239.087341 
	C149.885391,234.922806 150.126328,230.744354 149.866684,226.595779 
	C149.295044,217.462036 152.715988,210.266647 159.330597,204.054398 
	C173.197296,191.031158 177.808304,174.976181 172.264038,156.848312 
	C166.712784,138.697647 153.750107,128.343979 134.579529,125.114754 
	C118.999992,123.733894 105.791222,128.066620 95.547363,139.372772 
	C78.153564,158.570358 79.215919,185.699753 98.086456,203.530716 
	C105.099930,210.157806 108.730797,217.641556 108.049492,227.278458 
	C107.815521,230.587967 107.786324,233.946381 108.056053,237.250412 
	C108.774368,246.049240 105.519539,253.497253 93.947968,256.789062 
	C91.371780,256.847107 89.225792,256.982910 87.079338,256.990692 
	C68.391647,257.058319 49.703884,257.102997 31.072701,257.077515 
	C31.129263,257.000488 31.068148,256.819427 30.849838,256.558289 
	C26.880489,254.111130 25.921099,250.755096 25.925636,246.578735 
	C26.002907,175.472076 25.970259,104.365318 26.008511,33.258595 
	C26.015415,20.422407 34.193237,8.514358 46.060223,3.526596 
	C47.477150,2.931051 48.691666,1.853911 50.000000,1.000000 
z"/>
<path fill="#FFDC64" opacity="1.000000" stroke="none" 
	d="
M351.764191,84.156731 
	C334.381531,82.239723 319.636536,87.320198 308.063721,100.708420 
	C302.134888,107.567253 294.084351,108.338081 285.291809,108.293716 
	C276.283569,103.198235 273.569489,96.079247 273.793274,86.379669 
	C274.364990,61.599167 274.097046,36.795727 273.885742,12.003837 
	C273.845123,7.236964 274.847504,3.536888 279.000000,1.000000 
	C348.354218,1.000000 417.708466,1.000000 487.722534,1.309586 
	C491.927795,3.250561 495.625366,4.619153 498.987549,6.566830 
	C506.497955,10.917586 509.879700,18.399378 513.000000,26.000000 
	C513.000000,102.687561 513.000000,179.375122 513.000000,256.531342 
	C483.367279,257.000183 453.734558,256.989929 424.101837,257.005585 
	C412.127502,257.011932 405.986115,263.145966 405.892792,275.113800 
	C405.884979,276.112640 405.970673,277.119232 405.876282,278.109222 
	C404.550171,292.017395 408.292542,302.985840 418.532227,313.920624 
	C442.539856,339.557922 428.545654,382.014923 391.085144,388.467957 
	C389.635864,387.857544 388.804718,387.294006 387.887268,386.998322 
	C368.620941,380.788757 355.297607,362.526276 356.107483,342.397461 
	C356.597778,330.211700 360.970001,319.408539 370.388092,311.090759 
	C375.500702,306.575409 379.766724,301.321350 380.290070,294.321136 
	C380.869843,286.566071 381.302734,278.679962 380.535187,270.976929 
	C379.718597,262.781464 372.528625,257.268402 364.175507,257.032806 
	C360.022430,256.915649 355.861908,257.063202 351.704742,257.091003 
	C326.094757,257.087677 300.484772,257.084351 274.402252,257.054993 
	C273.929718,257.029022 273.949371,256.887756 273.960938,256.428802 
	C273.977570,226.070251 273.962097,196.170609 274.004089,166.271072 
	C274.013092,159.848251 276.258453,154.638641 282.453278,151.707550 
	C283.440247,151.240585 284.179657,150.250473 285.033539,149.502228 
	C293.959351,149.249954 302.235382,150.658722 308.593628,157.843735 
	C320.079163,170.822678 334.611542,175.767075 352.615906,173.832092 
	C373.102692,175.466446 388.877472,169.222519 399.405243,151.936951 
	C411.356720,132.313782 405.325134,105.039932 386.553284,91.926361 
	C375.869751,84.463104 364.139618,83.244301 351.764191,84.156731 
z"/>
<path fill="#00C3FF" opacity="1.000000" stroke="none" 
	d="
M135.041931,125.205048 
	C153.750107,128.343979 166.712784,138.697647 172.264038,156.848312 
	C177.808304,174.976181 173.197296,191.031158 159.330597,204.054398 
	C152.715988,210.266647 149.295044,217.462036 149.866684,226.595779 
	C150.126328,230.744354 149.885391,234.922806 149.917389,239.087341 
	C150.003952,250.357391 156.579529,256.960663 167.968430,256.982147 
	C197.288406,257.037415 226.608521,257.005554 256.449432,257.498993 
	C256.980072,286.620605 256.839172,315.253052 257.084564,343.882172 
	C257.166229,353.407257 253.867874,360.274139 244.837692,363.944702 
	C238.511093,364.089539 232.182129,364.168671 225.858444,364.394867 
	C216.725372,364.721527 209.564972,361.065643 203.495728,354.343750 
	C196.977310,347.124420 188.842926,342.436462 178.405396,340.555389 
	C172.232407,340.305786 166.591553,339.381042 161.348557,340.435181 
	C135.621613,345.607666 120.039505,370.515594 126.080284,396.053101 
	C131.553131,419.189667 156.756607,435.142426 178.454620,429.203857 
	C188.467346,427.964996 196.771088,423.196442 203.287384,415.822906 
	C209.731873,408.530518 217.403549,405.181335 226.980652,405.597748 
	C232.618271,405.842834 238.264359,405.892578 244.608398,406.300385 
	C253.543884,409.943970 256.975006,415.034607 256.986053,424.276794 
	C257.021393,453.851135 256.999695,483.425598 257.000000,513.000000 
	C188.979111,513.000000 120.958214,513.000000 52.217491,512.750000 
	C50.924320,512.165833 50.389240,511.660858 49.772022,511.522583 
	C36.041893,508.446716 25.688868,493.121490 25.789818,478.116302 
	C26.259312,408.331848 26.037750,338.542389 25.911175,268.754974 
	C25.902321,263.873749 26.835243,259.936249 31.016140,257.154510 
	C49.703884,257.102997 68.391647,257.058319 87.079338,256.990692 
	C89.225792,256.982910 91.371780,256.847107 94.460541,256.837372 
	C99.728401,256.931427 104.058693,257.104309 108.377983,256.956146 
	C117.633575,256.638580 124.601852,249.626648 124.964417,240.349548 
	C125.094261,237.026901 124.804634,233.682281 125.031754,230.369995 
	C125.823059,218.829727 121.813896,209.790649 113.334938,201.569031 
	C89.535202,178.491623 99.461357,137.777740 130.896393,127.492844 
	C132.369995,127.010704 133.664185,125.980179 135.041931,125.205048 
z"/>
<path fill="#00AAF0" opacity="1.000000" stroke="none" 
	d="
M31.072701,257.077515 
	C26.835243,259.936249 25.902321,263.873749 25.911175,268.754974 
	C26.037750,338.542389 26.259312,408.331848 25.789818,478.116302 
	C25.688868,493.121490 36.041893,508.446716 49.772022,511.522583 
	C50.389240,511.660858 50.924320,512.165833 51.748833,512.750000 
	C43.645767,513.000000 35.291534,513.000000 26.325779,512.652466 
	C18.073162,510.303680 11.447268,506.736664 7.276842,499.730499 
	C5.010866,495.923737 3.081311,491.916687 1.000001,488.000000 
	C1.000000,411.312439 1.000000,334.624878 1.468657,257.469177 
	C11.647592,256.940521 21.357870,256.879974 31.068148,256.819427 
	C31.068148,256.819427 31.129263,257.000488 31.072701,257.077515 
z"/>
<path fill="#D33C69" opacity="1.000000" stroke="none" 
	d="
M30.849838,256.558289 
	C21.357870,256.879974 11.647592,256.940521 1.468657,257.000549 
	C1.000000,180.312439 1.000000,103.624878 1.345185,26.324701 
	C3.742999,18.106405 7.293192,11.471173 14.277813,7.294076 
	C18.080036,5.020187 22.085953,3.086905 26.000000,1.000000 
	C33.687576,1.000000 41.375153,1.000000 49.531364,1.000000 
	C48.691666,1.853911 47.477150,2.931051 46.060223,3.526596 
	C34.193237,8.514358 26.015415,20.422407 26.008511,33.258595 
	C25.970259,104.365318 26.002907,175.472076 25.925636,246.578735 
	C25.921099,250.755096 26.880489,254.111130 30.849838,256.558289 
z"/>
<path fill="#FFC851" opacity="1.000000" stroke="none" 
	d="
M278.531433,1.000000 
	C274.847504,3.536888 273.845123,7.236964 273.885742,12.003837 
	C274.097046,36.795727 274.364990,61.599167 273.793274,86.379669 
	C273.569489,96.079247 276.283569,103.198235 284.887329,108.229103 
	C280.243378,108.376366 275.377258,108.756577 270.685822,108.021828 
	C262.165009,106.687355 257.017944,100.226288 257.009918,91.674889 
	C256.981842,61.762375 256.994263,31.849821 256.995667,1.468642 
	C264.020966,1.000000 271.041901,1.000000 278.531433,1.000000 
z"/>
<path fill="#A0D756" opacity="1.000000" stroke="none" 
	d="
M257.468567,513.000000 
	C256.999695,483.425598 257.021393,453.851135 256.986053,424.276794 
	C256.975006,415.034607 253.543884,409.943970 245.066589,406.314331 
	C249.143509,406.036407 253.466125,405.918762 257.784058,406.013702 
	C266.065857,406.195770 271.952789,411.368591 273.012604,419.527130 
	C273.544891,423.624603 273.917053,427.774506 273.932098,431.902283 
	C274.018005,455.500519 274.022308,479.099365 273.930542,502.697540 
	C273.914490,506.825989 274.827667,510.247314 278.764526,512.750366 
	C271.979034,513.000000 264.958099,513.000000 257.468567,513.000000 
z"/>
<path fill="#FFFFFF" opacity="1.000000" stroke="none" 
	d="
M488.468689,513.000000 
	C495.601746,509.879730 503.085114,506.497955 507.434814,498.985596 
	C509.381897,495.622772 510.745911,491.922363 512.687256,488.187561 
	C513.000000,496.259705 513.000000,504.519409 513.000000,513.000000 
	C504.980469,513.000000 496.958893,513.000000 488.468689,513.000000 
z"/>
<path fill="#FFFFFF" opacity="1.000000" stroke="none" 
	d="
M1.000001,488.468689 
	C3.081311,491.916687 5.010866,495.923737 7.276842,499.730499 
	C11.447268,506.736664 18.073162,510.303680 25.857128,512.652466 
	C17.740294,513.000000 9.480589,513.000000 1.000000,513.000000 
	C1.000000,504.980469 1.000000,496.958893 1.000001,488.468689 
z"/>
<path fill="#FFFFFF" opacity="1.000000" stroke="none" 
	d="
M513.000000,25.531321 
	C509.879700,18.399378 506.497955,10.917586 498.987549,6.566830 
	C495.625366,4.619153 491.927795,3.250561 488.191223,1.309586 
	C496.259705,1.000000 504.519409,1.000000 513.000000,1.000000 
	C513.000000,9.019533 513.000000,17.041086 513.000000,25.531321 
z"/>
<path fill="#FFFFFF" opacity="1.000000" stroke="none" 
	d="
M25.531321,1.000000 
	C22.085953,3.086905 18.080036,5.020187 14.277813,7.294076 
	C7.293192,11.471173 3.742999,18.106405 1.345185,25.856045 
	C1.000000,17.740295 1.000000,9.480593 1.000000,1.000000 
	C9.019533,1.000000 17.041086,1.000000 25.531321,1.000000 
z"/>
<path fill="#FFC850" opacity="1.000000" stroke="none" 
	d="
M351.981201,257.318909 
	C355.861908,257.063202 360.022430,256.915649 364.175507,257.032806 
	C372.528625,257.268402 379.718597,262.781464 380.535187,270.976929 
	C381.302734,278.679962 380.869843,286.566071 380.290070,294.321136 
	C379.766724,301.321350 375.500702,306.575409 370.388092,311.090759 
	C360.970001,319.408539 356.597778,330.211700 356.107483,342.397461 
	C355.297607,362.526276 368.620941,380.788757 387.887268,386.998322 
	C388.804718,387.294006 389.635864,387.857544 390.714417,388.561249 
	C364.842224,391.739319 344.852386,374.381073 340.749237,353.711273 
	C337.646942,338.083313 340.589722,323.564178 352.394135,312.395203 
	C360.932617,304.316406 365.340363,295.400757 364.073883,283.701599 
	C363.824738,281.400269 363.887573,279.037476 364.063965,276.722656 
	C364.771301,267.440338 360.987732,260.987030 351.981201,257.318909 
z"/>
<path fill="#A0D756" opacity="1.000000" stroke="none" 
	d="
M245.316330,363.960876 
	C253.867874,360.274139 257.166229,353.407257 257.084564,343.882172 
	C256.839172,315.253052 256.980072,286.620605 256.907532,257.528046 
	C256.844818,257.066620 256.948364,256.848236 257.493286,256.864502 
	C263.341949,256.883087 268.645660,256.885406 273.949371,256.887756 
	C273.949371,256.887756 273.929718,257.029022 273.931427,257.100952 
	C273.945892,285.797821 274.103333,314.424225 273.825287,343.046356 
	C273.780365,347.674774 272.424866,352.558502 270.550354,356.830658 
	C268.391541,361.750854 263.630768,363.824677 258.275604,363.974457 
	C254.118622,364.090729 249.955414,363.984436 245.316330,363.960876 
z"/>
<path fill="#9FD757" opacity="1.000000" stroke="none" 
	d="
M178.034058,429.144348 
	C156.756607,435.142426 131.553131,419.189667 126.080284,396.053101 
	C120.039505,370.515594 135.621613,345.607666 161.348557,340.435181 
	C166.591553,339.381042 172.232407,340.305786 178.014923,340.560028 
	C159.455322,343.248596 143.674515,360.455750 141.871506,379.583313 
	C140.517441,393.947845 144.761276,406.213531 154.309357,416.533325 
	C160.500580,423.224854 168.462494,427.467194 178.034058,429.144348 
z"/>
<path fill="#02AAF0" opacity="1.000000" stroke="none" 
	d="
M134.579529,125.114754 
	C133.664185,125.980179 132.369995,127.010704 130.896393,127.492844 
	C99.461357,137.777740 89.535202,178.491623 113.334938,201.569031 
	C121.813896,209.790649 125.823059,218.829727 125.031754,230.369995 
	C124.804634,233.682281 125.094261,237.026901 124.964417,240.349548 
	C124.601852,249.626648 117.633575,256.638580 108.377983,256.956146 
	C104.058693,257.104309 99.728401,256.931427 94.890518,256.855774 
	C105.519539,253.497253 108.774368,246.049240 108.056053,237.250412 
	C107.786324,233.946381 107.815521,230.587967 108.049492,227.278458 
	C108.730797,217.641556 105.099930,210.157806 98.086456,203.530716 
	C79.215919,185.699753 78.153564,158.570358 95.547363,139.372772 
	C105.791222,128.066620 118.999992,123.733894 134.579529,125.114754 
z"/>
<path fill="#FFC851" opacity="1.000000" stroke="none" 
	d="
M273.960938,256.428802 
	C268.645660,256.885406 263.341949,256.883087 257.590637,256.792847 
	C257.097137,226.077820 256.970428,195.450409 257.057587,164.823624 
	C257.081818,156.312119 264.606201,149.834900 274.640594,149.222702 
	C277.787659,149.030670 280.960327,149.258636 284.577393,149.398285 
	C284.179657,150.250473 283.440247,151.240585 282.453278,151.707550 
	C276.258453,154.638641 274.013092,159.848251 274.004089,166.271072 
	C273.962097,196.170609 273.977570,226.070251 273.960938,256.428802 
z"/>
<path fill="#FFC851" opacity="1.000000" stroke="none" 
	d="
M352.067566,84.372559 
	C364.139618,83.244301 375.869751,84.463104 386.553284,91.926361 
	C405.325134,105.039932 411.356720,132.313782 399.405243,151.936951 
	C388.877472,169.222519 373.102692,175.466446 353.056030,173.828857 
	C361.217987,170.814255 369.458893,167.293243 376.097595,160.515778 
	C399.620056,136.501602 388.938904,95.295105 356.640198,85.931458 
	C355.207733,85.516174 353.793610,85.037529 352.067566,84.372559 
z"/>
</svg>