<svg version="1.1" id="Layer_1" xmlns="http://www.w3.org/2000/svg" xmlns:xlink="http://www.w3.org/1999/xlink" x="0px" y="0px"
	 width="100%" viewBox="0 0 512 512" enable-background="new 0 0 512 512" xml:space="preserve">
<path fill="#FFFFFF" opacity="1.000000" stroke="none" 
	d="
M0.999998,284.000000 
	C1.000000,189.710754 1.000000,95.421516 1.000000,1.066140 
	C171.542786,1.066140 342.085602,1.066140 513.000000,1.066140 
	C513.000000,47.686905 513.000000,94.374794 512.642944,141.371033 
	C507.927307,115.821129 487.999451,94.830482 462.224792,89.031296 
	C452.074158,86.747437 441.927460,85.671234 431.555573,89.946480 
	C421.601257,92.526894 413.248840,97.251503 405.537781,103.955673 
	C402.995636,104.220566 400.793213,104.132904 398.789978,104.722328 
	C384.872375,108.817390 380.792847,118.435555 380.143646,131.437546 
	C379.504608,144.236511 380.043335,157.094284 380.029327,170.398315 
	C380.326263,180.462997 380.556061,190.060532 381.013550,199.647202 
	C381.976929,219.835190 392.111969,234.474075 408.894318,244.918854 
	C411.623444,246.617371 413.338989,248.298233 413.095215,251.914124 
	C412.715942,257.540405 412.962006,263.208893 412.480865,268.914764 
	C403.862274,268.980011 395.705719,268.967926 387.549377,269.005188 
	C375.418640,269.060547 364.062836,280.369934 364.007843,292.470947 
	C363.967773,301.293182 364.000000,310.115753 364.000000,318.938171 
	C364.000000,321.861389 364.000000,324.784607 364.000000,328.000000 
	C366.728882,328.000000 368.706940,328.002869 370.685028,327.999573 
	C407.136108,327.938751 443.587158,327.877197 480.500671,327.877502 
	C491.642090,327.959442 502.321045,327.979736 513.000000,328.000000 
	C513.000000,389.636078 513.000000,451.272125 513.000000,512.954102 
	C342.448608,512.954102 171.897186,512.954102 1.000000,512.954102 
	C1.000000,451.646210 1.000000,390.291748 1.468657,328.468658 
	C40.308723,327.980194 78.680138,327.960388 117.515045,327.950623 
	C128.315582,327.947449 138.652603,327.934235 149.216217,327.848694 
	C149.729614,327.591644 149.892822,327.329895 149.948563,326.523254 
	C149.969925,315.259735 149.996552,304.464020 149.975006,293.668335 
	C149.947708,279.991791 139.046143,269.064728 125.422623,269.021545 
	C117.284660,268.995728 109.146660,268.979340 101.005539,268.494232 
	C101.006233,261.056183 101.010071,254.082626 101.363464,247.036301 
	C103.425095,245.982620 105.212364,245.111954 106.837296,244.003326 
	C119.754211,235.190781 129.563736,223.754898 131.761765,207.997040 
	C133.556732,195.128616 133.238037,181.965347 133.914688,168.473206 
	C133.306320,159.841614 133.371979,151.524841 131.791870,143.533493 
	C129.714050,133.024963 125.094650,123.447578 116.897705,115.621155 
	C108.489990,106.197594 98.355659,99.464630 86.371506,97.560486 
	C76.488731,95.990242 66.163551,97.204384 55.670090,97.241760 
	C35.475590,103.096428 21.315147,115.334061 13.256298,134.438202 
	C9.422663,143.526138 8.083569,152.957123 9.420732,162.833435 
	C10.907367,162.899277 12.081620,162.842010 13.214981,163.030548 
	C14.485823,163.241974 15.719678,163.675720 16.979788,164.480484 
	C17.327333,178.370377 16.370712,191.982697 18.308949,205.169525 
	C21.133263,224.384842 31.614891,239.042786 49.985489,247.597015 
	C49.993519,255.030441 49.994278,262.009979 49.526703,268.992920 
	C41.395081,268.997559 33.730255,269.096252 26.068892,268.975464 
	C16.372618,268.822601 9.375333,273.400543 3.957828,281.038544 
	C3.161983,282.160553 1.995162,283.019379 0.999998,284.000000 
M291.002869,341.940216 
	C290.982819,334.585785 290.962769,327.231323 291.349030,319.331390 
	C295.318878,316.675262 299.424042,314.198944 303.233978,311.330414 
	C316.406311,301.412933 324.789368,288.315674 329.085876,272.407959 
	C333.050293,257.729858 331.737671,242.786804 331.975922,226.983688 
	C331.979248,219.342255 332.186310,211.694153 331.935730,204.061050 
	C331.602173,193.899155 328.310364,184.806396 320.406006,178.036026 
	C314.386139,172.879791 307.274719,169.913162 298.799805,169.772049 
	C298.799805,158.668259 298.799805,147.958588 298.799805,137.169250 
	C287.227753,137.169250 276.121796,137.169250 264.086273,137.026230 
	C259.262421,137.017426 254.438553,137.008377 249.614700,136.999878 
	C228.665298,136.962997 211.265594,144.439377 197.655716,160.732651 
	C187.963593,172.335770 183.062637,185.696442 182.112549,200.488846 
	C181.527466,209.598190 182.043381,218.778275 181.992630,228.870651 
	C182.326874,239.610733 182.521729,250.357407 183.030823,261.089203 
	C183.660278,274.358795 188.839661,286.072357 196.348373,296.755493 
	C203.293732,306.637115 212.677765,313.885376 223.010315,320.879303 
	C223.003479,328.200928 222.996643,335.522583 222.060883,342.964966 
	C212.304703,343.309326 202.499054,343.151733 192.803146,344.107574 
	C175.193359,345.843597 159.995239,360.507782 158.176407,378.495300 
	C156.946609,390.657623 157.201599,402.981903 157.047607,415.236938 
	C156.947906,423.173523 160.972702,426.993927 168.832748,426.996429 
	C198.614532,427.005920 228.396332,427.020111 258.178101,426.993073 
	C277.474548,426.975586 296.770935,426.889587 316.988739,426.946533 
	C326.319672,426.956207 335.650604,426.977081 344.981537,426.972229 
	C353.185822,426.967957 357.049530,423.232697 356.930969,414.894012 
	C356.758820,402.787048 357.024109,390.604156 355.683899,378.612183 
	C354.986816,372.375000 352.307434,365.729095 348.670410,360.575623 
	C339.794739,347.999390 326.662811,343.027985 311.493103,343.015808 
	C304.664734,343.010284 297.836426,342.913177 291.002869,341.940216 
z"/>
<path fill="#E6E9ED" opacity="1.000000" stroke="none" 
	d="
M0.999998,284.333313 
	C1.995162,283.019379 3.161983,282.160553 3.957828,281.038544 
	C9.375333,273.400543 16.372618,268.822601 26.068892,268.975464 
	C33.730255,269.096252 41.395081,268.997559 49.825760,269.141754 
	C59.331490,277.345154 59.474697,277.604736 68.516235,272.616974 
	C73.098381,270.089233 77.065712,269.506927 81.334236,272.672516 
	C87.746437,277.427856 93.763313,277.988007 99.427734,270.991516 
	C110.049179,274.113403 116.832298,283.942017 116.963882,296.134827 
	C117.078293,306.735809 117.028679,317.338562 117.051544,327.940552 
	C78.680138,327.960388 40.308723,327.980194 1.468657,328.000000 
	C1.000000,314.645782 1.000000,301.291534 1.158842,287.367340 
	C1.389987,286.696472 1.541603,286.528473 1.522018,286.505310 
	C1.366364,286.321350 1.178187,286.164917 0.999997,286.000000 
	C1.000000,285.555542 1.000000,285.111115 0.999998,284.333313 
z"/>
<path fill="#DA4453" opacity="1.000000" stroke="none" 
	d="
M431.951385,89.910324 
	C441.927460,85.671234 452.074158,86.747437 462.224792,89.031296 
	C487.999451,94.830482 507.927307,115.821129 512.642944,141.839691 
	C513.000000,163.020889 513.000000,184.041794 512.654297,205.635406 
	C509.867554,208.961731 507.532593,208.542786 505.415955,205.862610 
	C502.566345,202.254333 499.803619,198.577408 496.987183,194.585236 
	C491.308472,189.171967 485.646149,184.103378 479.988708,178.563965 
	C479.666687,167.157043 479.995728,156.153061 478.872406,145.299377 
	C476.723663,124.537567 466.087860,108.704491 448.382416,97.820877 
	C443.231018,94.654297 437.445984,92.518578 431.951385,89.910324 
z"/>
<path fill="#FFFFFF" opacity="1.000000" stroke="none" 
	d="
M497.003601,194.929932 
	C499.803619,198.577408 502.566345,202.254333 505.415955,205.862610 
	C507.532593,208.542786 509.867554,208.961731 512.654297,206.104065 
	C513.000000,232.687561 513.000000,259.375122 512.668579,286.387115 
	C510.314240,277.034302 497.375885,268.358612 488.378387,268.908844 
	C480.296265,269.403076 472.155823,268.943146 464.026917,268.442902 
	C463.951050,261.300262 463.889343,254.618835 464.049744,247.664932 
	C485.836548,236.552109 495.949524,218.566940 497.003601,194.929932 
z"/>
<path fill="#8CC152" opacity="1.000000" stroke="none" 
	d="
M464.041107,268.904114 
	C472.155823,268.943146 480.296265,269.403076 488.378387,268.908844 
	C497.375885,268.358612 510.314240,277.034302 512.668579,286.855774 
	C513.000000,300.354218 513.000000,313.708466 513.000000,327.531372 
	C502.321045,327.979736 491.642090,327.959442 480.488922,327.422241 
	C480.009399,316.311676 480.258881,305.708557 479.867676,295.129181 
	C479.720428,291.147278 478.499847,287.060455 477.041626,283.303650 
	C474.505676,276.770203 468.562195,273.485291 463.109619,269.763702 
	C463.510162,269.331909 463.775635,269.118011 464.041107,268.904114 
z"/>
<path fill="#FFFFFF" opacity="1.000000" stroke="none" 
	d="
M0.999997,286.250000 
	C1.178187,286.164917 1.366364,286.321350 1.522018,286.505310 
	C1.541603,286.528473 1.389987,286.696472 1.158842,286.898682 
	C1.000000,287.000000 1.000000,286.500000 0.999997,286.250000 
z"/>
<path fill="#5D9CEC" opacity="1.000000" stroke="none" 
	d="
M316.067352,426.834259 
	C296.770935,426.889587 277.474548,426.975586 258.178101,426.993073 
	C228.396332,427.020111 198.614532,427.005920 168.832748,426.996429 
	C160.972702,426.993927 156.947906,423.173523 157.047607,415.236938 
	C157.201599,402.981903 156.946609,390.657623 158.176407,378.495300 
	C159.995239,360.507782 175.193359,345.843597 192.803146,344.107574 
	C202.499054,343.151733 212.304703,343.309326 222.821579,343.072571 
	C228.267807,347.909790 233.089859,352.514526 237.580765,357.422272 
	C239.795807,359.842896 241.537476,359.843018 244.383560,358.442078 
	C259.501984,351.000549 254.390915,351.012238 269.780640,358.436127 
	C269.930298,358.508362 270.082611,358.582733 270.215454,358.680847 
	C272.556580,360.409058 274.247711,359.673431 276.160797,357.667633 
	C280.634033,352.977661 285.367340,348.535767 290.228668,344.270996 
	C291.082672,344.772797 291.688721,345.057190 292.326172,345.212402 
	C310.107422,349.540802 323.998169,367.780975 323.073029,387.118011 
	C322.644623,396.072235 322.655609,405.081818 323.119965,414.032471 
	C323.434387,420.093231 321.666718,424.350769 316.067352,426.834259 
z"/>
<path fill="#EAC6BB" opacity="1.000000" stroke="none" 
	d="
M223.035263,319.927551 
	C212.677765,313.885376 203.293732,306.637115 196.348373,296.755493 
	C188.839661,286.072357 183.660278,274.358795 183.030823,261.089203 
	C182.521729,250.357407 182.326874,239.610733 182.382507,228.430466 
	C188.546616,224.204742 194.484909,220.642853 200.044434,216.564651 
	C204.698883,213.150375 208.789658,211.945816 214.945938,213.685074 
	C225.158813,216.570374 235.864990,218.060120 246.465134,219.115768 
	C255.307388,219.996353 264.342102,220.002441 273.205566,219.304260 
	C281.520660,218.649277 289.723083,216.563126 297.986145,215.566925 
	C298.000580,220.849716 298.209778,225.682663 297.967743,230.492889 
	C297.311371,243.538895 299.481750,256.649872 296.132507,269.653198 
	C289.106720,296.930725 272.148499,314.714355 245.779846,323.923248 
	C244.467300,324.381653 243.287216,325.219299 241.665314,325.879913 
	C235.201874,323.895477 229.118576,321.911530 223.035263,319.927551 
z"/>
<path fill="#EAC6BB" opacity="1.000000" stroke="none" 
	d="
M464.026917,268.442902 
	C463.775635,269.118011 463.510162,269.331909 462.792480,269.890381 
	C455.451294,274.796936 448.498993,279.267609 441.709473,283.973175 
	C439.487976,285.512817 437.845459,285.695465 435.550720,284.095734 
	C428.096771,278.899414 420.490570,273.921509 412.942993,268.859497 
	C412.962006,263.208893 412.715942,257.540405 413.095215,251.914124 
	C413.338989,248.298233 411.623444,246.617371 408.894318,244.918854 
	C392.111969,234.474075 381.976929,219.835190 381.013550,199.647202 
	C380.556061,190.060532 380.326263,180.462997 380.454041,170.466888 
	C393.476990,169.802063 402.280518,162.578705 405.418884,150.364609 
	C408.422638,155.004349 410.503235,160.066574 413.998230,163.807373 
	C419.357788,169.543961 426.908600,170.679199 434.536591,171.035294 
	C444.076630,171.480682 453.604553,172.185776 463.096375,173.265717 
	C463.037048,182.395508 463.419861,191.061813 462.914368,199.676025 
	C461.974579,215.690842 455.151031,229.060394 442.618011,239.042831 
	C436.934875,243.569382 430.306702,246.909393 423.721222,251.029160 
	C428.547485,251.685898 433.474762,253.306549 438.165833,252.788406 
	C446.793121,251.835541 455.281433,249.624222 463.827637,247.937408 
	C463.889343,254.618835 463.951050,261.300262 464.026917,268.442902 
z"/>
<path fill="#965353" opacity="1.000000" stroke="none" 
	d="
M297.975067,215.106720 
	C289.723083,216.563126 281.520660,218.649277 273.205566,219.304260 
	C264.342102,220.002441 255.307388,219.996353 246.465134,219.115768 
	C235.864990,218.060120 225.158813,216.570374 214.945938,213.685074 
	C208.789658,211.945816 204.698883,213.150375 200.044434,216.564651 
	C194.484909,220.642853 188.546616,224.204742 182.418686,227.958435 
	C182.043381,218.778275 181.527466,209.598190 182.112549,200.488846 
	C183.062637,185.696442 187.963593,172.335770 197.655716,160.732651 
	C211.265594,144.439377 228.665298,136.962997 249.614700,136.999878 
	C254.438553,137.008377 259.262421,137.017426 264.546570,137.555176 
	C265.005188,152.912720 265.062836,167.741745 264.952423,182.569519 
	C264.929871,185.595276 265.529541,186.976105 269.017761,187.130432 
	C273.440399,187.326111 277.936279,188.075882 282.195709,189.299759 
	C291.708008,192.033005 297.645996,200.155975 298.045258,210.001144 
	C298.101501,211.387680 298.764465,212.749603 298.995422,214.333206 
	C298.554474,214.731232 298.264771,214.918961 297.975067,215.106720 
z"/>
<path fill="#EAC6BB" opacity="1.000000" stroke="none" 
	d="
M49.978218,247.143158 
	C31.614891,239.042786 21.133263,224.384842 18.308949,205.169525 
	C16.370712,191.982697 17.327333,178.370377 17.233744,164.176132 
	C18.455551,163.296890 19.458723,162.991516 20.407858,163.111984 
	C38.604019,165.421188 56.487011,164.054428 73.982033,158.473999 
	C82.665001,155.704391 91.274002,152.702927 99.945717,150.292633 
	C99.983124,166.057175 99.999191,181.335434 99.990456,196.613693 
	C99.989227,198.767807 100.163704,200.980011 99.754883,203.066986 
	C95.579010,224.384338 83.868057,239.789902 63.805889,248.612762 
	C62.750034,249.077087 61.951481,250.126480 60.661522,250.896179 
	C56.852673,249.640289 53.415443,248.391724 49.978218,247.143158 
z"/>
<path fill="#A0D468" opacity="1.000000" stroke="none" 
	d="
M412.480865,268.914764 
	C420.490570,273.921509 428.096771,278.899414 435.550720,284.095734 
	C437.845459,285.695465 439.487976,285.512817 441.709473,283.973175 
	C448.498993,279.267609 455.451294,274.796936 462.657410,270.108215 
	C468.562195,273.485291 474.505676,276.770203 477.041626,283.303650 
	C478.499847,287.060455 479.720428,291.147278 479.867676,295.129181 
	C480.258881,305.708557 480.009399,316.311676 480.026489,327.360565 
	C443.587158,327.877197 407.136108,327.938751 370.685028,327.999573 
	C368.706940,328.002869 366.728882,328.000000 364.000000,328.000000 
	C364.000000,324.784607 364.000000,321.861389 364.000000,318.938171 
	C364.000000,310.115753 363.967773,301.293182 364.007843,292.470947 
	C364.062836,280.369934 375.418640,269.060547 387.549377,269.005188 
	C395.705719,268.967926 403.862274,268.980011 412.480865,268.914764 
z"/>
<path fill="#ED5565" opacity="1.000000" stroke="none" 
	d="
M463.137695,172.778748 
	C453.604553,172.185776 444.076630,171.480682 434.536591,171.035294 
	C426.908600,170.679199 419.357788,169.543961 413.998230,163.807373 
	C410.503235,160.066574 408.422638,155.004349 405.382141,149.921204 
	C405.367310,146.548218 405.927063,143.789932 405.947449,141.027664 
	C406.038788,128.657898 405.976501,116.286972 405.969666,103.916466 
	C413.248840,97.251503 421.601257,92.526894 431.555573,89.946480 
	C437.445984,92.518578 443.231018,94.654297 448.382416,97.820877 
	C466.087860,108.704491 476.723663,124.537567 478.872406,145.299377 
	C479.995728,156.153061 479.666687,167.157043 479.657074,178.439240 
	C473.926270,176.783142 468.531982,174.780945 463.137695,172.778748 
z"/>
<path fill="#FFCE54" opacity="1.000000" stroke="none" 
	d="
M99.916466,149.806351 
	C91.274002,152.702927 82.665001,155.704391 73.982033,158.473999 
	C56.487011,164.054428 38.604019,165.421188 20.407858,163.111984 
	C19.458723,162.991516 18.455551,163.296890 17.223581,163.708374 
	C15.719678,163.675720 14.485823,163.241974 13.214981,163.030548 
	C12.081620,162.842010 10.907367,162.899277 9.420732,162.833435 
	C8.083569,152.957123 9.422663,143.526138 13.256298,134.438202 
	C21.315147,115.334061 35.475590,103.096428 55.728310,97.579239 
	C57.372917,98.600006 58.521923,99.518669 59.828056,100.053917 
	C77.197639,107.171883 89.768456,118.997520 96.098373,136.940689 
	C97.502518,140.920975 98.699135,144.974487 99.966919,149.196777 
	C99.942528,149.399261 99.916466,149.806351 99.916466,149.806351 
z"/>
<path fill="#D3B1A9" opacity="1.000000" stroke="none" 
	d="
M297.986145,215.566925 
	C298.264771,214.918961 298.554474,214.731232 299.371277,214.299652 
	C304.676056,211.537521 308.496094,212.753128 312.782501,215.979355 
	C318.761932,220.479889 325.495270,223.978699 331.906006,227.906189 
	C331.737671,242.786804 333.050293,257.729858 329.085876,272.407959 
	C324.789368,288.315674 316.406311,301.412933 303.233978,311.330414 
	C299.424042,314.198944 295.318878,316.675262 290.771057,319.647614 
	C289.257660,320.255707 288.277649,320.450134 287.393341,320.854034 
	C272.825378,327.507050 257.632355,328.455841 242.045456,325.880371 
	C243.287216,325.219299 244.467300,324.381653 245.779846,323.923248 
	C272.148499,314.714355 289.106720,296.930725 296.132507,269.653198 
	C299.481750,256.649872 297.311371,243.538895 297.967743,230.492889 
	C298.209778,225.682663 298.000580,220.849716 297.986145,215.566925 
z"/>
<path fill="#D3B1A9" opacity="1.000000" stroke="none" 
	d="
M99.945717,150.292633 
	C99.916466,149.806351 99.942528,149.399261 100.225761,149.178116 
	C100.679489,148.927765 100.849991,148.898575 101.468658,148.916992 
	C110.751961,147.883072 117.522568,151.826553 123.389496,157.865417 
	C126.927406,161.507019 130.370667,165.240570 133.856461,168.932800 
	C133.238037,181.965347 133.556732,195.128616 131.761765,207.997040 
	C129.563736,223.754898 119.754211,235.190781 106.837296,244.003326 
	C105.212364,245.111954 103.425095,245.982620 101.009064,247.126831 
	C98.295029,248.003342 96.294312,248.744263 94.273369,249.425156 
	C83.337189,253.109802 72.295555,254.513458 61.033138,250.903503 
	C61.951481,250.126480 62.750034,249.077087 63.805889,248.612762 
	C83.868057,239.789902 95.579010,224.384338 99.754883,203.066986 
	C100.163704,200.980011 99.989227,198.767807 99.990456,196.613693 
	C99.999191,181.335434 99.983124,166.057175 99.945717,150.292633 
z"/>
<path fill="#844747" opacity="1.000000" stroke="none" 
	d="
M331.940979,227.444946 
	C325.495270,223.978699 318.761932,220.479889 312.782501,215.979355 
	C308.496094,212.753128 304.676056,211.537521 299.522491,214.089355 
	C298.764465,212.749603 298.101501,211.387680 298.045258,210.001144 
	C297.645996,200.155975 291.708008,192.033005 282.195709,189.299759 
	C277.936279,188.075882 273.440399,187.326111 269.017761,187.130432 
	C265.529541,186.976105 264.929871,185.595276 264.952423,182.569519 
	C265.062836,167.741745 265.005188,152.912720 265.011353,137.626694 
	C276.121796,137.169250 287.227753,137.169250 298.799805,137.169250 
	C298.799805,147.958588 298.799805,158.668259 298.799805,169.772049 
	C307.274719,169.913162 314.386139,172.879791 320.406006,178.036026 
	C328.310364,184.806396 331.602173,193.899155 331.935730,204.061050 
	C332.186310,211.694153 331.979248,219.342255 331.940979,227.444946 
z"/>
<path fill="#4A89DC" opacity="1.000000" stroke="none" 
	d="
M316.528046,426.890381 
	C321.666718,424.350769 323.434387,420.093231 323.119965,414.032471 
	C322.655609,405.081818 322.644623,396.072235 323.073029,387.118011 
	C323.998169,367.780975 310.107422,349.540802 292.326172,345.212402 
	C291.688721,345.057190 291.082672,344.772797 290.308838,344.015869 
	C290.439819,343.274628 290.723969,343.066162 291.008087,342.857666 
	C297.836426,342.913177 304.664734,343.010284 311.493103,343.015808 
	C326.662811,343.027985 339.794739,347.999390 348.670410,360.575623 
	C352.307434,365.729095 354.986816,372.375000 355.683899,378.612183 
	C357.024109,390.604156 356.758820,402.787048 356.930969,414.894012 
	C357.049530,423.232697 353.185822,426.967957 344.981537,426.972229 
	C335.650604,426.977081 326.319672,426.956207 316.528046,426.890381 
z"/>
<path fill="#F5F7FA" opacity="1.000000" stroke="none" 
	d="
M291.005493,342.398926 
	C290.723969,343.066162 290.439819,343.274628 290.075500,343.738281 
	C285.367340,348.535767 280.634033,352.977661 276.160797,357.667633 
	C274.247711,359.673431 272.556580,360.409058 270.215454,358.680847 
	C270.082611,358.582733 269.930298,358.508362 269.780640,358.436127 
	C254.390915,351.012238 259.501984,351.000549 244.383560,358.442078 
	C241.537476,359.843018 239.795807,359.842896 237.580765,357.422272 
	C233.089859,352.514526 228.267807,347.909790 223.286041,343.012177 
	C222.996643,335.522583 223.003479,328.200928 223.022797,320.403442 
	C229.118576,321.911530 235.201874,323.895477 241.665314,325.879913 
	C257.632355,328.455841 272.825378,327.507050 287.393341,320.854034 
	C288.277649,320.450134 289.257660,320.255707 290.567932,319.920349 
	C290.962769,327.231323 290.982819,334.585785 291.005493,342.398926 
z"/>
<path fill="#CCD1D9" opacity="1.000000" stroke="none" 
	d="
M117.515045,327.950623 
	C117.028679,317.338562 117.078293,306.735809 116.963882,296.134827 
	C116.832298,283.942017 110.049179,274.113403 99.536095,270.724182 
	C99.852722,269.953186 100.430702,269.455933 101.008682,268.958740 
	C109.146660,268.979340 117.284660,268.995728 125.422623,269.021545 
	C139.046143,269.064728 149.947708,279.991791 149.975006,293.668335 
	C149.996552,304.464020 149.969925,315.259735 149.748627,326.630188 
	C149.281876,327.390747 149.100906,327.629456 148.989624,327.921021 
	C138.652603,327.934235 128.315582,327.947449 117.515045,327.950623 
z"/>
<path fill="#DA4453" opacity="1.000000" stroke="none" 
	d="
M405.537781,103.955673 
	C405.976501,116.286972 406.038788,128.657898 405.947449,141.027664 
	C405.927063,143.789932 405.367310,146.548218 405.092621,149.751740 
	C402.280518,162.578705 393.476990,169.802063 380.490021,169.994843 
	C380.043335,157.094284 379.504608,144.236511 380.143646,131.437546 
	C380.792847,118.435555 384.872375,108.817390 398.789978,104.722328 
	C400.793213,104.132904 402.995636,104.220566 405.537781,103.955673 
z"/>
<path fill="#F6BB42" opacity="1.000000" stroke="none" 
	d="
M101.020485,148.869400 
	C100.849991,148.898575 100.679489,148.927765 100.250153,148.975616 
	C98.699135,144.974487 97.502518,140.920975 96.098373,136.940689 
	C89.768456,118.997520 77.197639,107.171883 59.828056,100.053917 
	C58.521923,99.518669 57.372917,98.600006 56.092648,97.522110 
	C66.163551,97.204384 76.488731,95.990242 86.371506,97.560486 
	C98.355659,99.464630 108.489990,106.197594 116.755325,115.947159 
	C111.510231,127.339149 106.265358,138.104279 101.020485,148.869400 
z"/>
<path fill="#F5F7FA" opacity="1.000000" stroke="none" 
	d="
M101.005539,268.494202 
	C100.430702,269.455933 99.852722,269.953186 99.166382,270.717743 
	C93.763313,277.988007 87.746437,277.427856 81.334236,272.672516 
	C77.065712,269.506927 73.098381,270.089233 68.516235,272.616974 
	C59.474697,277.604736 59.331490,277.345154 50.294094,269.138367 
	C49.994278,262.009979 49.993519,255.030441 49.985489,247.597015 
	C53.415443,248.391724 56.852673,249.640289 60.661522,250.896179 
	C72.295555,254.513458 83.337189,253.109802 94.273369,249.425156 
	C96.294312,248.744263 98.295029,248.003342 100.659492,247.199600 
	C101.010071,254.082626 101.006233,261.056183 101.005539,268.494202 
z"/>
<path fill="#EDAB37" opacity="1.000000" stroke="none" 
	d="
M101.468658,148.916992 
	C106.265358,138.104279 111.510231,127.339149 116.897491,116.248032 
	C125.094650,123.447578 129.714050,133.024963 131.791870,143.533493 
	C133.371979,151.524841 133.306320,159.841614 133.914688,168.473206 
	C130.370667,165.240570 126.927406,161.507019 123.389496,157.865417 
	C117.522568,151.826553 110.751961,147.883072 101.468658,148.916992 
z"/>
<path fill="#D9DEE3" opacity="1.000000" stroke="none" 
	d="
M149.216217,327.848694 
	C149.100906,327.629456 149.281876,327.390747 149.732513,327.097992 
	C149.892822,327.329895 149.729614,327.591644 149.216217,327.848694 
z"/>
<path fill="#D3B1A9" opacity="1.000000" stroke="none" 
	d="
M463.096375,173.265717 
	C468.531982,174.780945 473.926270,176.783142 479.652161,178.910065 
	C485.646149,184.103378 491.308472,189.171967 496.987213,194.585236 
	C495.949524,218.566940 485.836548,236.552109 464.049774,247.664917 
	C455.281433,249.624222 446.793121,251.835541 438.165833,252.788406 
	C433.474762,253.306549 428.547485,251.685898 423.721222,251.029160 
	C430.306702,246.909393 436.934875,243.569382 442.618011,239.042831 
	C455.151031,229.060394 461.974579,215.690842 462.914368,199.676025 
	C463.419861,191.061813 463.037048,182.395508 463.096375,173.265717 
z"/>
</svg>