<svg version="1.1" id="Layer_1" xmlns="http://www.w3.org/2000/svg" xmlns:xlink="http://www.w3.org/1999/xlink" x="0px" y="0px"
	 width="100%" viewBox="0 0 512 512" enable-background="new 0 0 512 512" xml:space="preserve">
<path fill="#FFFFFF" opacity="1.000000" stroke="none" 
	d="
M0.999998,292.000000 
	C1.000000,195.038315 1.000000,98.076622 1.000000,1.057464 
	C171.560944,1.057464 342.121887,1.057464 513.000000,1.057464 
	C513.000000,97.689079 513.000000,194.378510 512.661560,291.371216 
	C511.823547,289.957245 511.494629,288.167114 510.797485,286.534241 
	C504.828552,272.553406 493.581238,266.269409 478.848938,264.563721 
	C478.466339,263.614990 478.165985,263.018341 478.031342,262.386414 
	C474.621429,246.382965 460.680267,232.193008 444.189972,230.250366 
	C427.300934,228.260773 410.209656,227.959213 393.201263,227.020935 
	C379.647491,226.273254 366.088593,225.599899 352.526001,225.036392 
	C334.473053,224.286285 316.410400,223.027725 298.358856,223.136276 
	C258.810150,223.374146 219.263443,224.224136 179.720856,225.058044 
	C164.822296,225.372253 149.939941,226.397705 135.045639,226.983139 
	C116.325653,227.718933 97.590858,228.134552 78.881966,229.076050 
	C66.726082,229.687775 55.688168,233.153885 46.858234,242.462570 
	C40.701073,248.953552 37.422344,256.618103 34.574394,264.940155 
	C32.071308,265.323792 29.954321,265.542603 27.902121,266.032715 
	C20.116924,267.892059 13.040281,271.150330 8.521502,278.065765 
	C5.644415,282.468781 3.482558,287.339172 0.999998,292.000000 
M319.609741,107.926994 
	C319.336151,107.737160 319.084991,107.496124 318.785736,107.364792 
	C291.280029,95.293175 262.534790,91.828888 233.003616,96.193497 
	C213.741928,99.040306 195.671341,105.914200 178.744293,115.658981 
	C173.952789,118.417412 172.026016,121.982796 173.235275,126.537178 
	C174.888519,132.763733 180.794785,134.962738 187.380035,131.869064 
	C195.893967,127.869347 204.210175,123.315750 213.009979,120.086342 
	C229.365509,114.084091 246.391174,111.517746 263.851776,113.042442 
	C271.007019,113.667259 278.181488,114.430664 285.241638,115.712547 
	C300.106781,118.411545 313.729370,124.425110 326.814331,131.870728 
	C331.979187,134.809631 337.849426,133.086151 340.091522,128.669937 
	C342.634949,123.660202 340.730438,118.544342 335.122986,115.601936 
	C330.234589,113.036819 325.291504,110.575920 319.609741,107.926994 
M316.182281,162.362274 
	C317.815186,156.652496 316.220886,152.459564 311.391266,150.128265 
	C308.462463,148.714523 305.474182,147.414642 302.467163,146.173782 
	C287.146362,139.851562 271.024750,136.840698 254.623489,137.267700 
	C244.125870,137.541016 233.500061,139.619858 223.296371,142.285248 
	C215.389496,144.350677 207.871811,148.234680 200.525955,151.985580 
	C196.634979,153.972366 195.797256,159.107559 198.182541,163.149948 
	C200.190521,166.552917 203.539886,168.406555 207.625473,167.113724 
	C217.501297,163.988663 227.163284,160.061020 237.187302,157.564301 
	C248.837738,154.662445 260.737885,154.813446 272.708710,156.772598 
	C283.278046,158.502350 293.123016,162.006271 302.814117,166.311523 
	C308.885132,169.008575 311.712341,168.182388 316.182281,162.362274 
M289.548157,187.043182 
	C288.459473,186.352142 287.451630,185.444962 286.269806,185.002914 
	C271.546143,179.495682 256.341858,178.732285 241.006836,181.224533 
	C235.904083,182.053848 230.902084,184.033783 226.112076,186.089127 
	C222.266098,187.739410 220.230209,193.615540 222.319046,197.246017 
	C224.251862,200.605377 226.931595,203.400879 231.876114,202.214172 
	C239.029037,200.497421 246.340714,198.199051 253.555511,198.296921 
	C262.638611,198.420151 271.743713,200.442978 280.736786,202.177826 
	C285.153473,203.029846 288.648071,202.360855 290.813477,198.550629 
	C292.843506,194.978561 293.167236,191.071243 289.548157,187.043182 
z"/>
<path fill="#FFFFFF" opacity="1.000000" stroke="none" 
	d="
M513.000000,359.000000 
	C513.000000,410.305939 513.000000,461.611847 513.000000,512.958862 
	C342.451874,512.958862 171.903717,512.958862 1.000000,512.958862 
	C1.000000,461.979645 1.000000,410.958496 1.336070,359.626343 
	C4.424824,370.550293 11.170414,378.558746 21.825153,382.816254 
	C26.267681,384.591461 31.257256,384.997620 36.004089,386.412476 
	C41.838341,407.624481 57.164215,419.662109 78.896545,419.866364 
	C124.371864,420.293762 169.855469,420.160461 215.331192,419.754211 
	C220.160355,419.711060 225.597504,417.184998 229.585114,414.233490 
	C233.235535,411.531555 235.748764,406.929016 237.970444,402.743225 
	C241.641693,395.826294 246.684906,393.909180 254.621475,393.591675 
	C265.779144,393.145233 273.323730,395.650818 278.338501,406.300171 
	C283.336914,416.914764 292.602844,420.795074 304.445374,420.146332 
	C316.736237,419.473083 329.093384,420.083679 341.420227,419.979584 
	C375.019989,419.695801 408.625275,419.615997 442.215698,418.877258 
	C458.768951,418.513214 475.291809,402.698639 478.412354,385.996002 
	C480.071075,385.644745 481.309296,385.095734 482.569183,385.040527 
	C489.711029,384.727509 495.594421,381.714813 501.207001,377.435547 
	C507.487946,372.646637 509.960571,365.707520 513.000000,359.000000 
z"/>
<path fill="#808080" opacity="1.000000" stroke="none" 
	d="
M35.998093,386.026276 
	C31.257256,384.997620 26.267681,384.591461 21.825153,382.816254 
	C11.170414,378.558746 4.424824,370.550293 1.336070,359.157715 
	C1.000000,336.979095 1.000000,314.958221 0.999998,292.468658 
	C3.482558,287.339172 5.644415,282.468781 8.521502,278.065765 
	C13.040281,271.150330 20.116924,267.892059 27.902121,266.032715 
	C29.954321,265.542603 32.071308,265.323792 34.732391,265.295410 
	C35.210552,269.035461 35.007694,272.461334 35.035656,275.885345 
	C35.335487,312.599152 35.671787,349.312683 35.998093,386.026276 
z"/>
<path fill="#808080" opacity="1.000000" stroke="none" 
	d="
M513.000000,358.531342 
	C509.960571,365.707520 507.487946,372.646637 501.207001,377.435547 
	C495.594421,381.714813 489.711029,384.727509 482.569183,385.040527 
	C481.309296,385.095734 480.071075,385.644745 478.413147,385.549194 
	C478.328827,381.681335 478.929596,378.230591 478.936737,374.778625 
	C479.006714,340.887268 478.977203,306.995728 478.978546,273.104218 
	C478.978668,270.369263 478.997986,267.634277 479.008362,264.899323 
	C493.581238,266.269409 504.828552,272.553406 510.797485,286.534241 
	C511.494629,288.167114 511.823547,289.957245 512.661560,291.837219 
	C513.000000,314.020905 513.000000,336.041779 513.000000,358.531342 
z"/>
<path fill="#B2B2B2" opacity="1.000000" stroke="none" 
	d="
M478.848938,264.563721 
	C478.997986,267.634277 478.978668,270.369263 478.978546,273.104218 
	C478.977203,306.995728 479.006714,340.887268 478.936737,374.778625 
	C478.929596,378.230591 478.328827,381.681335 478.002655,385.579468 
	C475.291809,402.698639 458.768951,418.513214 442.215698,418.877258 
	C408.625275,419.615997 375.019989,419.695801 341.420227,419.979584 
	C329.093384,420.083679 316.736237,419.473083 304.445374,420.146332 
	C292.602844,420.795074 283.336914,416.914764 278.338501,406.300171 
	C273.323730,395.650818 265.779144,393.145233 254.621475,393.591675 
	C246.684906,393.909180 241.641693,395.826294 237.970444,402.743225 
	C235.748764,406.929016 233.235535,411.531555 229.585114,414.233490 
	C225.597504,417.184998 220.160355,419.711060 215.331192,419.754211 
	C169.855469,420.160461 124.371864,420.293762 78.896545,419.866364 
	C57.164215,419.662109 41.838341,407.624481 36.004089,386.412476 
	C35.671787,349.312683 35.335487,312.599152 35.035656,275.885345 
	C35.007694,272.461334 35.210552,269.035461 35.148247,265.255188 
	C37.422344,256.618103 40.701073,248.953552 46.858234,242.462570 
	C55.688168,233.153885 66.726082,229.687775 78.881966,229.076050 
	C97.590858,228.134552 116.325653,227.718933 135.045639,226.983139 
	C149.939941,226.397705 164.822296,225.372253 179.720856,225.058044 
	C219.263443,224.224136 258.810150,223.374146 298.358856,223.136276 
	C316.410400,223.027725 334.473053,224.286285 352.526001,225.036392 
	C366.088593,225.599899 379.647491,226.273254 393.201263,227.020935 
	C410.209656,227.959213 427.300934,228.260773 444.189972,230.250366 
	C460.680267,232.193008 474.621429,246.382965 478.031342,262.386414 
	C478.165985,263.018341 478.466339,263.614990 478.848938,264.563721 
M461.980713,338.500000 
	C461.979980,316.836243 462.059448,295.172058 461.951141,273.508820 
	C461.875641,258.403229 451.575867,247.638901 436.629913,246.909790 
	C414.342621,245.822525 392.054718,244.726776 369.758850,243.842407 
	C335.476410,242.482559 301.191193,240.451126 266.899323,240.280731 
	C233.105408,240.112823 199.294205,241.694061 165.504669,242.901962 
	C135.884430,243.960846 106.282188,245.533936 76.675087,246.944748 
	C63.136925,247.589859 52.279415,258.049591 52.158039,271.706604 
	C51.845573,306.865387 51.851669,342.030457 52.147583,377.189484 
	C52.264133,391.037231 63.391449,401.943359 77.058937,401.999939 
	C122.718109,402.189056 168.378464,402.135162 214.037994,402.024567 
	C215.669434,402.020599 217.816193,400.836273 218.833084,399.516541 
	C222.482651,394.780121 225.713928,389.723602 229.170898,384.835907 
	C232.862030,379.617157 237.749420,376.733124 244.350296,376.843536 
	C252.846710,376.985657 261.348602,376.972229 269.845642,376.850983 
	C276.247528,376.759644 281.034241,379.571503 284.651611,384.590393 
	C288.054230,389.311279 291.096375,394.309845 294.738037,398.831116 
	C296.052032,400.462433 298.643372,401.988129 300.658051,401.996124 
	C345.317841,402.173462 389.980438,401.893433 434.637939,402.258850 
	C450.366516,402.387573 462.445648,389.998871 462.040253,374.493591 
	C461.735474,362.836517 461.980438,351.165070 461.980713,338.500000 
z"/>
<path fill="#F15A24" opacity="1.000000" stroke="none" 
	d="
M319.991150,107.997986 
	C325.291504,110.575920 330.234589,113.036819 335.122986,115.601936 
	C340.730438,118.544342 342.634949,123.660202 340.091522,128.669937 
	C337.849426,133.086151 331.979187,134.809631 326.814331,131.870728 
	C313.729370,124.425110 300.106781,118.411545 285.241638,115.712547 
	C278.181488,114.430664 271.007019,113.667259 263.851776,113.042442 
	C246.391174,111.517746 229.365509,114.084091 213.009979,120.086342 
	C204.210175,123.315750 195.893967,127.869347 187.380035,131.869064 
	C180.794785,134.962738 174.888519,132.763733 173.235275,126.537178 
	C172.026016,121.982796 173.952789,118.417412 178.744293,115.658981 
	C195.671341,105.914200 213.741928,99.040306 233.003616,96.193497 
	C262.534790,91.828888 291.280029,95.293175 318.785736,107.364792 
	C319.084991,107.496124 319.336151,107.737160 319.991150,107.997986 
z"/>
<path fill="#F7931E" opacity="1.000000" stroke="none" 
	d="
M316.076538,162.744583 
	C311.712341,168.182388 308.885132,169.008575 302.814117,166.311523 
	C293.123016,162.006271 283.278046,158.502350 272.708710,156.772598 
	C260.737885,154.813446 248.837738,154.662445 237.187302,157.564301 
	C227.163284,160.061020 217.501297,163.988663 207.625473,167.113724 
	C203.539886,168.406555 200.190521,166.552917 198.182541,163.149948 
	C195.797256,159.107559 196.634979,153.972366 200.525955,151.985580 
	C207.871811,148.234680 215.389496,144.350677 223.296371,142.285248 
	C233.500061,139.619858 244.125870,137.541016 254.623489,137.267700 
	C271.024750,136.840698 287.146362,139.851562 302.467163,146.173782 
	C305.474182,147.414642 308.462463,148.714523 311.391266,150.128265 
	C316.220886,152.459564 317.815186,156.652496 316.076538,162.744583 
z"/>
<path fill="#FFCC5C" opacity="1.000000" stroke="none" 
	d="
M289.822754,187.328613 
	C293.167236,191.071243 292.843506,194.978561 290.813477,198.550629 
	C288.648071,202.360855 285.153473,203.029846 280.736786,202.177826 
	C271.743713,200.442978 262.638611,198.420151 253.555511,198.296921 
	C246.340714,198.199051 239.029037,200.497421 231.876114,202.214172 
	C226.931595,203.400879 224.251862,200.605377 222.319046,197.246017 
	C220.230209,193.615540 222.266098,187.739410 226.112076,186.089127 
	C230.902084,184.033783 235.904083,182.053848 241.006836,181.224533 
	C256.341858,178.732285 271.546143,179.495682 286.269806,185.002914 
	C287.451630,185.444962 288.459473,186.352142 289.822754,187.328613 
z"/>
<path fill="#1A1A1A" opacity="1.000000" stroke="none" 
	d="
M461.980713,339.000000 
	C461.980438,351.165070 461.735474,362.836517 462.040253,374.493591 
	C462.445648,389.998871 450.366516,402.387573 434.637939,402.258850 
	C389.980438,401.893433 345.317841,402.173462 300.658051,401.996124 
	C298.643372,401.988129 296.052032,400.462433 294.738037,398.831116 
	C291.096375,394.309845 288.054230,389.311279 284.651611,384.590393 
	C281.034241,379.571503 276.247528,376.759644 269.845642,376.850983 
	C261.348602,376.972229 252.846710,376.985657 244.350296,376.843536 
	C237.749420,376.733124 232.862030,379.617157 229.170898,384.835907 
	C225.713928,389.723602 222.482651,394.780121 218.833084,399.516541 
	C217.816193,400.836273 215.669434,402.020599 214.037994,402.024567 
	C168.378464,402.135162 122.718109,402.189056 77.058937,401.999939 
	C63.391449,401.943359 52.264133,391.037231 52.147583,377.189484 
	C51.851669,342.030457 51.845573,306.865387 52.158039,271.706604 
	C52.279415,258.049591 63.136925,247.589859 76.675087,246.944748 
	C106.282188,245.533936 135.884430,243.960846 165.504669,242.901962 
	C199.294205,241.694061 233.105408,240.112823 266.899323,240.280731 
	C301.191193,240.451126 335.476410,242.482559 369.758850,243.842407 
	C392.054718,244.726776 414.342621,245.822525 436.629913,246.909790 
	C451.575867,247.638901 461.875641,258.403229 461.951141,273.508820 
	C462.059448,295.172058 461.979980,316.836243 461.980713,339.000000 
M216.520096,257.064819 
	C213.190292,257.069763 209.853531,256.939148 206.532272,257.110138 
	C201.017700,257.394043 197.287445,260.952728 197.303802,265.670654 
	C197.320389,270.455444 201.053925,274.061737 206.577652,274.072937 
	C240.208923,274.141052 273.840485,274.141571 307.471771,274.070221 
	C312.974304,274.058533 316.718842,270.399658 316.701782,265.621552 
	C316.685608,261.094818 313.090820,257.577576 307.917694,257.108978 
	C306.595886,256.989227 305.255554,257.066040 303.923737,257.065979 
	C275.120514,257.064453 246.317261,257.064819 216.520096,257.064819 
M153.072906,308.591583 
	C151.699203,309.165405 150.190521,309.535706 148.972214,310.343781 
	C132.364685,321.359467 115.756454,332.375214 99.246460,343.536041 
	C94.641922,346.648773 93.651390,351.644531 96.324318,355.666656 
	C98.964851,359.639984 104.108284,360.688385 108.648132,357.701752 
	C125.296944,346.748779 141.854965,335.657623 158.426605,324.587677 
	C161.889191,322.274689 163.904190,319.055145 162.738098,314.838470 
	C161.539841,310.505554 158.412643,308.307220 153.072906,308.591583 
M145.847565,281.018097 
	C142.711639,274.100769 138.032333,272.249664 132.037674,276.174286 
	C115.367172,287.088135 98.810677,298.177979 82.296173,309.327179 
	C77.616058,312.486755 76.580765,317.308441 79.194473,321.414764 
	C81.838860,325.569336 87.127106,326.545197 91.903542,323.388336 
	C108.388412,312.493073 124.901573,301.632080 141.109512,290.335571 
	C143.530472,288.648224 144.373917,284.697479 145.847565,281.018097 
z"/>
<path fill="#F7E3AE" opacity="1.000000" stroke="none" 
	d="
M217.017059,257.064819 
	C246.317261,257.064819 275.120514,257.064453 303.923737,257.065979 
	C305.255554,257.066040 306.595886,256.989227 307.917694,257.108978 
	C313.090820,257.577576 316.685608,261.094818 316.701782,265.621552 
	C316.718842,270.399658 312.974304,274.058533 307.471771,274.070221 
	C273.840485,274.141571 240.208923,274.141052 206.577652,274.072937 
	C201.053925,274.061737 197.320389,270.455444 197.303802,265.670654 
	C197.287445,260.952728 201.017700,257.394043 206.532272,257.110138 
	C209.853531,256.939148 213.190292,257.069763 217.017059,257.064819 
z"/>
<path fill="#E2E2E2" opacity="1.000000" stroke="none" 
	d="
M153.442337,308.516449 
	C158.412643,308.307220 161.539841,310.505554 162.738098,314.838470 
	C163.904190,319.055145 161.889191,322.274689 158.426605,324.587677 
	C141.854965,335.657623 125.296944,346.748779 108.648132,357.701752 
	C104.108284,360.688385 98.964851,359.639984 96.324318,355.666656 
	C93.651390,351.644531 94.641922,346.648773 99.246460,343.536041 
	C115.756454,332.375214 132.364685,321.359467 148.972214,310.343781 
	C150.190521,309.535706 151.699203,309.165405 153.442337,308.516449 
z"/>
<path fill="#E2E2E2" opacity="1.000000" stroke="none" 
	d="
M145.897369,281.405945 
	C144.373917,284.697479 143.530472,288.648224 141.109512,290.335571 
	C124.901573,301.632080 108.388412,312.493073 91.903542,323.388336 
	C87.127106,326.545197 81.838860,325.569336 79.194473,321.414764 
	C76.580765,317.308441 77.616058,312.486755 82.296173,309.327179 
	C98.810677,298.177979 115.367172,287.088135 132.037674,276.174286 
	C138.032333,272.249664 142.711639,274.100769 145.897369,281.405945 
z"/>
</svg>